<svg width="35" height="30" viewBox="0 0 35 30" fill="none" xmlns="http://www.w3.org/2000/svg">
<path d="M14.9952 0.723814C15.0659 0.794687 15.122 0.878851 15.1603 0.971495C15.1986 1.06414 15.2183 1.16344 15.2183 1.26373C15.2183 1.36402 15.1986 1.46332 15.1603 1.55596C15.122 1.64861 15.0659 1.73277 14.9952 1.80364L2.59892 14.237L34.2391 14.237C34.4409 14.237 34.6345 14.3174 34.7771 14.4605C34.9198 14.6036 35 14.7977 35 15.0001C35 15.2025 34.9198 15.3966 34.7771 15.5397C34.6345 15.6828 34.4409 15.7632 34.2391 15.7632L2.59892 15.7632L14.9952 28.1965C15.0659 28.2674 15.1219 28.3516 15.1602 28.4442C15.1985 28.5369 15.2182 28.6362 15.2182 28.7364C15.2182 28.8367 15.1985 28.936 15.1602 29.0286C15.1219 29.1213 15.0659 29.2055 14.9952 29.2764C14.9245 29.3473 14.8406 29.4035 14.7482 29.4419C14.6558 29.4803 14.5568 29.5 14.4569 29.5C14.3569 29.5 14.2579 29.4803 14.1655 29.4419C14.0732 29.4035 13.9893 29.3473 13.9186 29.2764L0.223149 15.54C0.152407 15.4691 0.0962877 15.385 0.0579981 15.2923C0.0197086 15.1997 1.71714e-07 15.1004 1.7291e-07 15.0001C1.74106e-07 14.8998 0.0197086 14.8005 0.0579981 14.7079C0.0962877 14.6152 0.152407 14.531 0.223149 14.4602L13.9186 0.723814C13.9892 0.652861 14.0731 0.596573 14.1655 0.558169C14.2579 0.519764 14.3569 0.499998 14.4569 0.499998C14.5569 0.499998 14.6559 0.519764 14.7482 0.558169C14.8406 0.596573 14.9245 0.652861 14.9952 0.723814Z" fill="#0D0802"/>
</svg>
