<svg width="35" height="30" viewBox="0 0 35 30" fill="none" xmlns="http://www.w3.org/2000/svg">
<path d="M20.0048 29.2762C19.9341 29.2053 19.878 29.1211 19.8397 29.0285C19.8014 28.9359 19.7817 28.8366 19.7817 28.7363C19.7817 28.636 19.8014 28.5367 19.8397 28.444C19.878 28.3514 19.9341 28.2672 20.0048 28.1964L32.4011 15.763L0.760855 15.763C0.559061 15.763 0.365534 15.6826 0.222849 15.5395C0.0801606 15.3964 -1.46064e-06 15.2023 -1.44053e-06 14.9999C-1.42043e-06 14.7975 0.0801606 14.6034 0.222849 14.4603C0.365534 14.3172 0.559062 14.2368 0.760855 14.2368L32.4011 14.2368L20.0048 1.80347C19.9341 1.73257 19.8781 1.64839 19.8398 1.55575C19.8015 1.46312 19.7818 1.36383 19.7818 1.26355C19.7818 1.16328 19.8015 1.06399 19.8398 0.971354C19.8781 0.878715 19.9341 0.794541 20.0048 0.723638C20.0755 0.652736 20.1594 0.596493 20.2518 0.55812C20.3442 0.519748 20.4432 0.499999 20.5431 0.499999C20.6431 0.499999 20.7421 0.519748 20.8345 0.55812C20.9268 0.596493 21.0107 0.652736 21.0814 0.723638L34.7768 14.46C34.8476 14.5309 34.9037 14.615 34.942 14.7077C34.9803 14.8003 35 14.8996 35 14.9999C35 15.1002 34.9803 15.1995 34.942 15.2921C34.9037 15.3848 34.8476 15.469 34.7768 15.5398L21.0814 29.2762C21.0108 29.3471 20.9269 29.4034 20.8345 29.4418C20.7421 29.4802 20.6431 29.5 20.5431 29.5C20.4431 29.5 20.3441 29.4802 20.2518 29.4418C20.1594 29.4034 20.0755 29.3471 20.0048 29.2762Z" fill="#0D0802"/>
</svg>
