<svg width="1440" height="1632" viewBox="0 0 1440 1632" fill="none" xmlns="http://www.w3.org/2000/svg">
<g clip-path="url(#clip0_19_3321)">
<path d="M-534.834 183.785C-515.322 177.831 -495.608 173.531 -475.897 170.916C-456.187 168.301 -436.977 167.372 -417.721 167.918C-398.445 168.474 -379.377 170.517 -360.626 173.877C-341.712 177.274 -323.124 182.011 -304.952 187.896C-286.78 193.781 -268.681 200.909 -251.193 208.962C-233.705 217.016 -216.122 226.308 -199.255 236.313C-182.388 246.318 -165.621 257.425 -149.488 269.135C-133.356 280.844 -117.895 293.127 -102.772 306.102C-87.6489 319.077 -73.1627 332.481 -59.0105 346.537C-43.5521 361.891 -28.5858 377.876 -13.9363 394.206C1.18161 411.052 15.9374 428.296 30.467 445.807C44.9965 463.317 59.0934 480.81 73.198 498.549C87.3026 516.288 101.317 534.133 115.361 551.933C129.405 569.734 143.567 587.625 157.844 605.29C172.043 622.853 186.419 640.244 201.071 657.303C215.687 674.334 230.6 691.041 245.905 707.277C261.21 723.513 276.927 739.257 293.12 754.351C309.314 769.444 326.831 784.557 344.508 798.476C362.323 812.523 380.68 825.759 399.507 838.183C418.328 850.591 437.609 862.184 457.308 872.945C477.008 883.705 497.162 893.663 517.663 902.761C538.175 911.862 559.044 920.135 580.219 927.56C601.395 934.985 623.066 941.624 644.905 947.373C666.745 953.122 688.662 957.972 710.885 962.003C733.109 966.034 755.547 969.208 778.144 971.517C800.533 973.814 823.08 975.245 845.721 975.942C868.347 976.647 891.072 976.635 913.852 976.045C936.633 975.454 959.483 974.277 982.354 972.665C1005.23 971.054 1027.82 969.044 1050.57 966.743C1073.47 964.426 1096.38 961.813 1119.28 959.057C1142.3 956.289 1165.31 953.378 1188.33 950.454C1211.27 947.538 1234.2 944.622 1257.12 941.846C1280.12 939.053 1303.11 936.404 1326.09 934.022C1349.07 931.639 1372.6 929.52 1395.83 927.897C1419.19 926.253 1442.53 925.073 1465.8 924.48C1488.98 923.882 1512.12 923.879 1535.16 924.593C1558.2 925.307 1581.15 926.743 1603.94 929.044C1626.73 931.346 1648.94 934.47 1671.1 938.62C1693.25 942.766 1715.16 947.912 1736.69 954.222C1758.17 960.511 1779.28 967.94 1799.88 976.619C1820.48 985.298 1839.17 994.568 1857.95 1005.34C1858.88 1005.87 1859.61 1004.03 1858.7 1003.5C1839.17 992.308 1818.98 982.408 1798.28 973.786C1777.64 965.193 1756.5 957.866 1734.99 951.663C1713.47 945.46 1691.86 940.462 1669.9 936.39C1647.62 932.269 1625.11 929.164 1602.43 926.921C1579.63 924.661 1556.68 923.266 1533.62 922.6C1510.56 921.935 1487.44 921.971 1464.24 922.594C1441.04 923.217 1417.62 924.433 1394.26 926.093C1370.91 927.753 1348.04 929.836 1324.89 932.239C1301.75 934.642 1279.09 937.267 1256.19 940.039C1233.29 942.812 1210.15 945.76 1187.13 948.684C1164.11 951.608 1141.1 954.519 1118.08 957.287C1095.18 960.043 1072.27 962.643 1049.39 964.948C1026.5 967.253 1003.32 969.299 980.315 970.885C957.311 972.472 934.613 973.596 911.822 974.154C889.139 974.712 866.504 974.675 843.964 973.933C821.231 973.17 798.597 971.689 776.126 969.331C753.452 966.948 730.947 963.704 708.651 959.587C686.356 955.47 664.249 950.5 642.414 944.653C620.598 938.814 599.044 932.122 577.806 924.586C556.569 917.05 535.663 908.662 515.119 899.433C494.576 890.205 474.564 880.218 454.894 869.355C435.224 858.492 415.666 846.615 396.755 833.986C377.917 821.413 359.569 808.01 341.766 793.783C324.282 779.827 307.339 765.06 290.913 749.601C274.718 734.364 259.014 718.468 243.698 702.112C228.31 685.671 213.328 668.751 198.629 651.515C184.017 634.386 169.691 616.958 155.507 599.359C141.322 581.759 127.144 563.819 113.059 545.945C98.9628 528.066 84.892 510.155 70.7106 492.371C56.5911 474.669 42.3608 457.065 27.8891 439.735C13.4431 422.43 -1.23935 405.387 -16.2787 388.758C-30.8547 372.63 -45.7477 356.846 -61.1427 341.717C-75.3704 327.731 -90.04 314.31 -105.141 301.515C-120.4 288.585 -136.106 276.29 -152.262 264.728C-168.419 253.166 -184.856 242.449 -201.829 232.53C-218.675 222.677 -235.974 213.656 -253.706 205.647C-271.305 197.692 -289.346 190.716 -307.792 184.921C-326.238 179.125 -344.492 174.651 -363.364 171.414C-382.236 168.178 -401.078 166.311 -420.297 165.908C-439.516 165.504 -458.881 166.614 -478.281 169.312C-497.68 172.009 -516.204 176.16 -534.982 181.881C-536.067 182.216 -535.945 184.123 -534.849 183.793L-534.834 183.785Z" fill="white"/>
<path d="M1847.41 1021.23C1827.57 1010.71 1807.22 1001.21 1786.48 992.7C1765.77 984.205 1744.67 976.682 1723.26 970.065C1701.86 963.447 1680.16 957.756 1658.24 952.889C1636.32 948.022 1614.09 943.974 1591.72 940.702C1569.36 937.43 1546.83 934.903 1524.18 933.074C1501.38 931.228 1478.47 930.05 1455.48 929.439C1432.48 928.827 1409.47 928.769 1386.39 929.15C1363.3 929.53 1340.24 930.338 1317.12 931.449C1294 932.559 1269.73 934.02 1246.01 935.589C1222.37 937.15 1198.72 938.834 1175.07 940.547C1151.39 942.259 1127.69 944.009 1104.01 945.721C1080.32 947.434 1056.36 949.121 1032.54 950.723C1008.87 952.312 985.203 953.816 961.541 955.209C937.879 956.601 913.89 957.919 890.092 958.971C866.294 960.023 843.184 960.753 819.799 960.899C796.612 961.054 773.49 960.577 750.501 959.24C727.512 957.902 704.891 955.769 682.337 952.706C659.905 949.663 637.662 945.738 615.664 940.883C593.666 936.029 571.586 930.14 550.019 923.3C528.453 916.461 507.105 908.58 486.25 899.684C465.849 890.984 445.876 881.285 426.421 870.537C406.982 859.81 388.06 848.033 369.779 835.2C351.554 822.403 333.969 808.55 317.176 793.586C300.384 778.623 284.886 762.952 269.887 746.225C254.887 729.497 240.751 712.103 226.985 694.2C213.22 676.298 200.141 658.372 187.115 640.081C173.82 621.425 160.751 602.56 147.497 583.863C134.009 564.829 120.335 545.963 106.128 527.654C91.9209 509.345 76.702 491.128 61.1818 473.775C45.6616 456.423 29.8488 439.797 13.5871 423.546C-2.67449 407.296 -19.7285 391.184 -36.8982 375.682C-51.8382 362.195 -66.9888 348.994 -82.5454 336.388C-97.1781 324.525 -112.137 313.146 -127.42 302.308C-142.703 291.47 -158.789 280.851 -174.992 271.057C-191.058 261.333 -207.458 252.232 -224.206 243.876C-240.954 235.521 -258.378 227.75 -275.99 220.948C-293.418 214.219 -311.193 208.351 -329.278 203.516C-347.363 198.681 -365.339 194.934 -383.793 192.309C-402.2 189.688 -420.87 188.22 -439.7 188.059C-458.447 187.903 -477.354 189.055 -496.282 191.614C-515.21 194.172 -533.31 197.98 -551.691 203.218C-552.776 203.523 -552.655 205.431 -551.559 205.13C-532.508 199.704 -513.305 195.755 -494.117 193.259C-474.929 190.762 -455.996 189.75 -437.114 190.045C-418.299 190.329 -399.658 191.929 -381.264 194.672C-362.871 197.416 -344.383 201.399 -326.393 206.352C-308.404 211.306 -290.596 217.33 -273.203 224.173C-255.702 231.074 -238.548 238.835 -221.742 247.343C-204.936 255.85 -188.417 265.128 -172.279 275.025C-156.14 284.921 -140.346 295.465 -124.897 306.542C-109.746 317.413 -94.9142 328.812 -80.4035 340.682C-64.6404 353.572 -49.2935 367.052 -34.1522 380.806C-17.0123 396.382 -0.198621 412.383 16.1984 428.916C32.3844 445.236 48.2138 461.998 63.5556 479.321C78.8974 496.645 94.1703 515.141 108.612 533.988C122.703 552.379 136.291 571.282 149.732 590.311C163.174 609.341 175.994 627.82 189.293 646.406C202.355 664.64 215.618 682.697 229.299 700.308C242.98 717.919 257.119 735.072 271.972 751.397C287.082 768.026 302.947 783.759 319.634 798.365C336.321 812.972 354.103 826.776 372.347 839.38C390.539 851.963 409.356 863.498 428.672 874.032C448.212 884.686 468.271 894.291 488.741 902.904C509.631 911.686 530.947 919.44 552.604 926.201C574.001 932.872 595.733 938.563 617.71 943.353C639.687 948.142 661.991 952.005 684.437 954.982C706.884 957.959 729.758 960.052 752.64 961.332C775.521 962.612 798.775 963.027 821.977 962.835C845.178 962.643 868.649 961.874 892.03 960.825C915.833 959.761 939.658 958.434 963.494 957.025C987.329 955.617 1010.82 954.113 1034.49 952.523C1058.16 950.934 1081.94 949.246 1105.67 947.538C1129.36 945.825 1153.05 944.072 1176.73 942.359C1200.38 940.646 1224.03 938.962 1247.67 937.418C1271.39 935.861 1295.1 934.432 1318.78 933.306C1342.47 932.18 1364.96 931.416 1388 931.073C1411.04 930.729 1434.12 930.803 1457.08 931.444C1480.04 932.084 1502.78 933.277 1525.48 935.156C1548.21 937.035 1570.83 939.594 1593.28 942.928C1615.72 946.262 1637.63 950.297 1659.49 955.196C1681.36 960.096 1703.33 965.927 1724.81 972.631C1746.29 979.335 1767.27 986.899 1787.94 995.463C1808.61 1004.03 1827.52 1012.94 1846.67 1023.09C1847.61 1023.59 1848.36 1021.74 1847.41 1021.25L1847.41 1021.23Z" fill="#F2F2F2"/>
<path d="M1836.14 1038.99C1815.63 1028.97 1794.76 1019.71 1773.61 1011.18C1752.46 1002.65 1731.01 994.874 1709.31 987.797C1687.73 980.765 1665.9 974.434 1643.86 968.791C1621.9 963.177 1599.72 958.236 1577.39 953.963C1555.05 949.698 1532.54 946.093 1509.88 943.16C1487.23 940.228 1464.08 937.868 1441.03 936.092C1417.94 934.298 1394.76 933.055 1371.53 932.205C1348.29 931.367 1325 930.939 1301.68 930.794C1278.35 930.65 1254 930.778 1230.13 931.017C1206.27 931.257 1182.98 931.584 1159.39 932.005C1135.57 932.421 1111.75 932.948 1087.92 933.573C1064.33 934.195 1040.74 934.931 1017.13 935.857C993.394 936.777 969.642 937.891 945.878 939.242C922.016 940.598 898.139 942.289 874.256 944.051C850.374 945.812 827.148 947.538 803.607 948.894C780.067 950.25 756.999 951.082 733.796 951.102C710.567 951.125 687.431 950.386 664.448 948.622C641.465 946.857 619.965 944.333 598.036 940.75C576.107 937.167 553.754 932.426 532.082 926.587C510.409 920.748 488.636 913.626 467.584 905.335C447.328 897.367 427.539 888.213 408.347 877.843C389.156 867.473 370.516 855.853 352.687 842.959C334.858 830.065 318.03 816.102 302.128 800.669C286.226 785.235 271.475 768.422 257.71 750.548C244.327 733.172 231.86 714.878 219.887 696.155C208.059 677.661 196.609 658.82 185.276 639.897C173.942 620.974 162.398 601.423 150.571 582.516C138.744 563.608 125.708 543.956 112.098 525.816C98.1008 507.162 83.0319 489.663 67.0633 473.217C51.0948 456.77 34.7027 441.668 17.6797 427.041C0.65663 412.413 -18.2629 397.45 -36.745 383.434C-52.975 371.142 -69.3054 358.981 -85.9457 347.353C-101.248 336.65 -116.806 326.344 -132.613 316.51C-148.42 306.676 -164.943 297.024 -181.514 288.083C-198.085 279.141 -215.268 270.596 -232.58 262.813C-249.892 255.031 -267.742 247.818 -285.762 241.465C-303.781 235.113 -321.893 229.638 -340.393 225.065C-358.805 220.512 -377.488 216.894 -396.408 214.367C-415.329 211.84 -434.477 210.407 -453.78 210.213C-473.016 210.031 -492.397 211.092 -511.8 213.502C-530.689 215.848 -549.585 219.506 -568.37 224.481C-569.461 224.77 -569.339 226.677 -568.238 226.392C-548.692 221.21 -529.028 217.475 -509.381 215.135C-489.896 212.816 -470.442 211.899 -451.148 212.203C-431.859 212.521 -412.72 214.064 -393.824 216.71C-374.928 219.356 -356.106 223.102 -337.652 227.786C-319.197 232.469 -300.869 238.146 -282.91 244.588C-264.991 251.014 -247.375 258.247 -230.046 266.137C-212.718 274.026 -195.667 282.603 -178.916 291.746C-162.164 300.889 -146.02 310.388 -129.991 320.469C-113.963 330.55 -98.7729 340.707 -83.5259 351.459C-66.7052 363.318 -50.1691 375.676 -33.7536 388.186C-15.2759 402.271 2.94678 416.782 20.5678 432.137C38.1888 447.491 53.8896 462.186 69.5011 478.546C85.1126 494.905 100.552 513.254 114.533 532.301C128.514 551.349 140.344 569.571 152.38 588.992C164.048 607.821 175.324 627.007 186.77 646.032C198.14 664.955 209.63 683.784 221.554 702.216C233.638 720.899 246.257 739.111 259.817 756.344C273.377 773.577 288.448 790.391 304.357 805.484C320.358 820.672 337.368 834.508 355.127 847.102C372.969 859.758 391.581 871.153 410.771 881.351C430.079 891.611 449.984 900.653 470.355 908.511C491.36 916.625 512.84 923.53 534.68 929.279C556.091 934.912 577.841 939.467 599.815 942.997C621.866 946.544 644.16 949.074 666.582 950.726C689.57 952.421 712.73 953.098 735.973 953.009C759.191 952.924 782.462 952.031 805.794 950.662C829.248 949.285 852.738 947.523 876.213 945.798C899.689 944.073 923.974 942.374 947.83 941.031C971.686 939.687 995.331 938.602 1019.06 937.682C1042.69 936.773 1066.29 936.044 1089.89 935.427C1113.49 934.809 1137.35 934.295 1161.06 933.878C1184.74 933.466 1208.42 933.14 1232.09 932.908C1255.86 932.672 1279.62 932.563 1303.34 932.725C1327.07 932.887 1349.92 933.327 1373.13 934.197C1396.28 935.055 1419.37 936.332 1442.35 938.141C1465.34 939.95 1488.53 942.326 1511.43 945.329C1534.33 948.332 1556.41 951.903 1578.66 956.188C1600.91 960.474 1623.57 965.551 1645.71 971.28C1667.74 976.976 1689.55 983.357 1711.12 990.454C1732.69 997.552 1754.22 1005.44 1775.35 1014.01C1795.66 1022.26 1815.69 1031.2 1835.4 1040.82C1836.35 1041.29 1837.09 1039.44 1836.14 1038.98L1836.14 1038.99Z" fill="#E4E4E4"/>
<path d="M1824.87 1056.74C1803.75 1047.28 1782.44 1038.27 1760.93 1029.76C1739.4 1021.23 1717.68 1013.17 1695.76 1005.63C1673.85 998.095 1651.69 991.046 1629.38 984.562C1607.36 978.156 1585.17 972.296 1562.81 967.022C1540.45 961.748 1518.17 957.094 1495.62 953.045C1472.64 948.927 1449.53 945.382 1426.31 942.379C1403.02 939.359 1379.62 936.855 1356.14 934.75C1332.73 932.64 1309.25 930.92 1285.73 929.466C1262.2 928.013 1237.79 926.758 1213.78 925.624C1189.77 924.489 1166.76 923.471 1143.23 922.6C1119.7 921.729 1095.62 921.041 1071.77 920.67C1047.92 920.298 1024.83 920.224 1001.31 920.6C977.783 920.975 953.983 921.826 930.255 923.293C906.528 924.759 882.777 926.96 858.99 929.546C835.64 932.079 812.289 934.941 788.934 937.544C765.58 940.148 741.47 942.503 717.773 944.011C694.077 945.518 670.611 946.218 647.189 945.806C625.019 945.414 602.968 944.226 581.118 941.861C559.269 939.496 536.974 935.936 515.353 931.119C493.731 926.302 471.35 919.863 450.064 912.122C429.994 904.814 410.439 896.141 391.551 886.107C372.331 875.897 353.808 864.253 336.23 851.117C318.653 837.981 302.741 823.959 287.73 808.084C272.719 792.21 258.681 774.098 246.156 755.094C234.231 736.991 223.45 717.876 213.179 698.381C202.907 678.886 193.331 659.614 183.609 640.083C173.866 620.515 164.108 600.955 153.679 581.911C143.25 562.866 131.259 542.892 118.413 524.86C104.875 505.863 89.8476 488.41 73.5187 472.532C57.452 456.918 40.2765 442.787 22.5255 429.581C3.81049 415.672 -15.6349 402.955 -35.3095 390.689C-52.8074 379.772 -70.3402 368.913 -88.0474 358.398C-103.998 348.921 -120.109 339.75 -136.404 330.948C-153.118 321.92 -170.022 313.302 -187.15 305.151C-204.548 296.876 -222.166 289.085 -240.026 281.896C-258.03 274.649 -276.281 268.018 -294.784 262.099C-313.293 256.193 -332.043 251.004 -351.048 246.684C-370.054 242.364 -389.233 238.917 -408.661 236.5C-428.085 234.07 -447.711 232.673 -467.487 232.445C-487.263 232.217 -507.043 233.175 -526.925 235.42C-546.808 237.665 -565.752 241.061 -585.089 245.813C-586.186 246.086 -586.049 247.985 -584.957 247.725C-564.935 242.805 -544.801 239.289 -524.704 237.102C-504.607 234.915 -484.669 234.093 -464.82 234.436C-445.053 234.775 -425.441 236.294 -406.032 238.818C-386.511 241.359 -367.203 244.929 -348.14 249.372C-329.21 253.79 -310.515 259.057 -292.077 265.049C-273.639 271.042 -255.253 277.813 -237.223 285.17C-219.193 292.528 -201.964 300.22 -184.671 308.523C-167.379 316.826 -150.731 325.399 -134.062 334.452C-117.393 343.504 -101.762 352.481 -85.8673 361.979C-67.7497 372.803 -49.7715 383.913 -31.8785 395.146C-12.3463 407.412 6.89111 420.202 25.4085 434.189C43.9259 448.175 60.1352 461.874 76.0466 477.726C91.958 493.578 107.208 511.865 120.618 531.267C133.144 549.385 144.466 568.632 155.111 588.378C165.756 608.124 175.033 626.961 184.755 646.434C194.476 665.936 204.208 685.443 214.404 704.593C224.601 723.744 235.829 743.253 248.033 761.283C260.238 779.314 274.502 797.246 289.751 812.974C304.999 828.701 321.421 842.757 338.759 855.425C356.318 868.253 374.792 879.606 393.913 889.59C413.035 899.575 432.45 907.977 452.554 915.141C473.685 922.677 495.335 928.778 517.328 933.588C539.32 938.398 560.921 941.763 583.101 944.075C605.006 946.362 627.112 947.501 649.327 947.812C672.768 948.146 696.335 947.372 719.955 945.82C743.575 944.267 766.734 941.971 790.149 939.364C813.565 936.756 837.069 933.87 860.515 931.333C883.962 928.795 908.307 926.563 932.163 925.134C955.886 923.709 979.564 922.894 1003.19 922.531C1026.73 922.176 1050.23 922.276 1073.7 922.663C1097.17 923.05 1121.33 923.763 1145.11 924.647C1168.67 925.526 1192.19 926.578 1215.71 927.687C1239.62 928.825 1263.51 930.054 1287.36 931.541C1310.97 933.011 1334.51 934.76 1358 936.899C1381.29 939.016 1404.51 941.532 1427.62 944.551C1450.74 947.571 1474.09 951.169 1497.13 955.329C1520.17 959.489 1542.32 964.176 1564.66 969.499C1587.1 974.847 1609.37 980.781 1631.46 987.248C1653.56 993.716 1675.72 1000.81 1697.56 1008.37C1719.37 1015.93 1741 1023.97 1762.44 1032.51C1783.19 1040.76 1803.74 1049.48 1824.13 1058.6C1825.1 1059.04 1825.84 1057.19 1824.87 1056.76L1824.87 1056.74Z" fill="#D7D7D7"/>
<path d="M1813.58 1074.5C1791.79 1065.57 1769.94 1056.79 1747.99 1048.24C1726.04 1039.69 1703.91 1031.3 1681.71 1023.27C1659.66 1015.27 1637.5 1007.59 1615.19 1000.31C1592.89 993.033 1570.62 986.196 1548.11 979.835C1525.86 973.548 1503.45 967.782 1480.88 962.557C1458.32 957.331 1434.66 952.477 1411.35 948.223C1388.04 943.968 1364.55 940.168 1341 936.734C1317.46 933.299 1293.75 930.229 1270.05 927.401C1246.13 924.548 1222.19 921.924 1198.22 919.375C1174.24 916.825 1151.19 914.433 1127.63 912.319C1103.66 910.159 1079.63 908.315 1055.52 906.995C1031.4 905.676 1009.11 904.992 985.781 904.974C962.13 904.956 938.384 905.7 914.588 907.425C890.787 909.162 866.952 912.043 843.104 915.577C819.967 918.997 796.846 922.995 773.719 926.891C750.592 930.786 725.909 934.741 702.004 937.765C678.171 940.79 654.34 943.044 630.593 944.116C608.616 945.102 586.689 945.136 564.964 943.965C543.239 942.794 520.498 940.313 498.718 936.389C476.938 932.466 454.54 926.835 433.234 919.615C413.195 912.819 393.715 904.462 374.986 894.594C355.946 884.556 337.672 872.912 320.484 859.576C303.297 846.24 287.643 831.636 273.362 815.012C259.081 798.388 246.5 779.906 235.448 760.196C224.795 741.205 215.546 721.121 206.863 700.694C198.451 680.891 190.443 660.822 182.309 640.859C174.176 620.897 165.973 601.192 156.87 581.983C147.294 561.767 136.737 542.214 124.623 524.048C111.717 504.691 96.9839 487.156 80.5526 471.709C64.2499 456.386 46.5179 443.045 28.0319 431.072C8.61345 418.495 -11.6581 407.532 -32.2284 397.192C-51.3099 387.609 -70.4512 378.146 -89.6024 368.707C-106.186 360.532 -122.869 352.546 -139.661 344.83C-156.454 337.114 -174.592 329.141 -192.281 321.822C-209.969 314.502 -228.583 307.295 -247.007 300.737C-265.43 294.179 -284.379 288.038 -303.371 282.594C-322.47 277.122 -341.781 272.292 -361.303 268.25C-380.824 264.208 -400.755 260.916 -420.783 258.6C-440.719 256.292 -460.838 254.94 -481.103 254.686C-501.368 254.433 -521.764 255.299 -542.213 257.387C-562.062 259.431 -581.95 262.66 -601.763 267.149C-602.86 267.393 -602.727 269.305 -601.631 269.061C-581.041 264.385 -560.366 261.087 -539.738 259.057C-519.11 257.027 -498.738 256.308 -478.395 256.664C-458.053 257.021 -437.887 258.492 -417.888 260.911C-397.89 263.33 -378.224 266.658 -358.691 270.79C-339.112 274.927 -319.759 279.859 -300.608 285.438C-281.585 290.98 -262.758 297.158 -244.145 303.864C-225.531 310.57 -207.566 317.587 -189.549 325.096C-171.533 332.605 -154.564 340.12 -137.276 348.108C-120.539 355.844 -103.907 363.838 -87.3692 372.009C-67.9517 381.613 -48.5044 391.142 -29.1763 400.939C-8.58472 411.373 11.6533 422.537 30.998 435.356C49.4613 447.591 67.1257 461.277 83.2645 476.977C99.4033 492.678 113.81 510.61 126.418 530.204C138.271 548.636 148.6 568.369 158.015 588.72C166.946 608.003 175.058 627.842 183.13 647.694C191.201 667.546 199.339 687.939 207.904 707.747C216.62 727.915 225.993 747.663 236.779 766.294C247.566 784.924 260.941 803.999 275.489 820.344C289.939 836.579 305.897 851.048 322.871 863.883C340.065 876.879 358.305 888.223 377.277 898.019C396.248 907.814 415.589 915.9 435.662 922.523C456.838 929.505 478.582 934.873 500.682 938.739C522.47 942.552 544.615 944.922 566.925 946.028C589.235 947.135 610.722 947.009 632.78 945.942C656.302 944.807 679.909 942.52 703.519 939.491C727.316 936.437 751.115 932.613 774.913 928.616C798.141 924.704 821.374 920.693 844.603 917.282C868.665 913.749 892.729 910.889 916.739 909.193C940.439 907.53 964.083 906.859 987.639 906.91C1011.19 906.961 1034.26 907.745 1057.46 909.05C1080.65 910.355 1105.55 912.263 1129.5 914.447C1152.98 916.582 1176.39 919.007 1199.8 921.515C1223.21 924.022 1247.94 926.721 1271.95 929.599C1295.55 932.427 1319.11 935.496 1342.58 938.943C1366.05 942.39 1389.59 946.207 1412.93 950.502C1436.27 954.798 1459.79 959.668 1483 965.055C1505.57 970.296 1527.95 976.136 1550.19 982.473C1572.42 988.809 1594.88 995.724 1617 1002.99C1639.3 1010.31 1661.47 1018.02 1683.51 1026.02C1705.7 1034.09 1727.78 1042.46 1749.78 1051.06C1771.77 1059.66 1791.89 1067.76 1812.86 1076.34C1813.85 1076.74 1814.6 1074.9 1813.6 1074.5L1813.58 1074.5Z" fill="#C9C9C9"/>
<path d="M1802.31 1092.26C1779.9 1083.91 1757.57 1075.36 1735.26 1066.79C1712.94 1058.22 1690.49 1049.53 1668.07 1041C1645.66 1032.46 1623.35 1024.07 1600.87 1015.91C1578.39 1007.74 1556.25 999.986 1533.76 992.546C1511.65 985.242 1489.39 978.352 1466.96 971.967C1443.67 965.333 1420.2 959.269 1396.6 953.652C1373.3 948.114 1349.87 943.01 1326.35 938.23C1302.84 933.45 1278.88 928.948 1255.04 924.692C1231.19 920.437 1207.02 916.336 1182.98 912.314C1158.93 908.292 1136.22 904.608 1112.73 901.264C1088.74 897.837 1064.65 894.885 1040.42 892.716C1016.19 890.547 994.093 889.343 970.729 889.054C947.151 888.765 923.441 889.51 899.654 891.624C875.867 893.739 851.649 897.452 827.664 902.031C804.66 906.419 781.689 911.636 758.734 916.873C734.378 922.432 710.011 927.9 685.615 932.585C662.006 937.115 638.369 940.891 614.75 943.416C592.634 945.776 570.558 947.065 548.616 947.021C526.674 946.978 503.887 945.493 481.953 942.365C460.019 939.237 437.919 934.369 416.735 927.613C396.511 921.158 376.89 912.944 358.105 903.009C339.263 893.038 321.269 881.32 304.521 867.719C288.015 854.315 272.695 839.087 259.267 821.85C245.84 804.613 234.162 784.951 224.448 764.194C215.28 744.615 207.694 723.972 200.71 703.044C193.726 682.116 187.488 661.931 180.814 641.414C174.203 621.065 167.308 600.859 159.346 581.294C151.385 561.73 141.518 541.054 130.227 522.792C118.066 503.121 103.774 485.435 87.4424 470.271C71.1108 455.108 52.6142 442.13 33.4061 431.153C13.3685 419.698 -7.65421 410.362 -29.064 401.956C-49.5081 393.925 -70.1059 386.276 -90.5401 378.221C-107.867 371.39 -125.2 364.6 -142.611 357.978C-160.023 351.356 -178.797 344.399 -197.031 337.989C-215.264 331.579 -234.572 325.122 -253.538 319.259C-272.504 313.397 -292.261 307.759 -311.869 302.782C-331.477 297.805 -351.313 293.364 -371.295 289.637C-391.506 285.86 -411.897 282.797 -432.468 280.619C-453.038 278.441 -473.798 277.116 -494.674 276.845C-515.55 276.574 -536.405 277.34 -557.39 279.284C-578.375 281.227 -598.133 284.195 -618.478 288.441C-619.569 288.672 -619.443 290.567 -618.346 290.352C-597.209 285.94 -576.027 282.861 -554.894 280.991C-533.745 279.114 -512.655 278.47 -491.707 278.857C-470.758 279.243 -450.267 280.645 -429.777 282.905C-409.231 285.173 -388.859 288.314 -368.663 292.157C-348.466 295.999 -328.461 300.551 -308.638 305.672C-289.147 310.702 -269.817 316.282 -250.631 322.276C-231.445 328.27 -213.066 334.467 -194.449 341.046C-175.832 347.625 -158.176 354.202 -140.166 361.08C-122.816 367.706 -105.53 374.491 -88.243 381.306C-67.5174 389.493 -46.5889 397.147 -25.888 405.395C-4.64554 413.862 16.1907 423.366 36.0008 434.972C55.3502 446.307 73.7079 459.629 90.1289 475.543C106.113 491.038 119.961 509.088 131.743 528.964C142.773 547.578 152.027 567.621 160.174 588.318C168.32 609.015 174.634 628.186 181.199 648.502C187.828 669.016 194.203 689.656 201.135 710.005C208.067 730.355 216.111 751.482 225.608 770.894C235.609 791.352 247.453 810.453 261.306 827.49C275.159 844.527 290.278 859.044 306.785 872.063C323.637 885.349 341.69 896.804 360.554 906.542C379.418 916.279 398.792 924.164 418.907 930.39C440.119 936.958 461.973 941.64 484.156 944.682C506.012 947.679 528.212 949.027 550.555 948.99C572.304 948.955 594.205 947.596 616.112 945.223C639.874 942.642 663.658 938.796 687.398 934.204C711.138 929.613 735.744 924.083 759.902 918.573C784.06 913.064 806.026 908.099 829.137 903.711C852.249 899.323 877.371 895.489 901.454 893.408C925.246 891.367 948.962 890.697 972.551 891.047C996.14 891.398 1019.1 892.752 1042.17 894.865C1066.43 897.074 1090.55 900.084 1114.57 903.536C1138.58 906.988 1161.42 910.725 1184.77 914.639C1208.84 918.67 1232.91 922.758 1256.91 927.05C1280.73 931.31 1304.49 935.804 1328.17 940.637C1351.81 945.454 1375.37 950.608 1398.78 956.22C1422.2 961.833 1445.67 967.938 1468.86 974.592C1491.34 981.027 1513.64 987.974 1535.8 995.327C1558.3 1002.8 1580.65 1010.67 1602.92 1018.78C1625.31 1026.94 1647.61 1035.33 1669.87 1043.82C1692.28 1052.37 1714.66 1061.03 1737.05 1069.63C1758.53 1077.88 1780.02 1086.09 1801.59 1094.13C1802.58 1094.5 1803.33 1092.66 1802.33 1092.28L1802.31 1092.26Z" fill="#BCBCBC"/>
<path d="M1791.04 1110.01C1767.98 1102.23 1745.11 1093.92 1722.37 1085.29C1699.64 1076.67 1676.99 1067.74 1654.41 1058.68C1631.88 1049.67 1609.41 1040.54 1586.9 1031.53C1564.55 1022.57 1542.16 1013.72 1519.64 1005.16C1497.13 996.612 1475.27 988.698 1452.86 981.09C1429.58 973.185 1406.1 965.804 1382.49 958.854C1358.87 951.904 1335.38 945.418 1311.69 939.206C1287.91 932.978 1264.05 927.057 1240.14 921.328C1216.22 915.6 1192.23 910.027 1168.23 904.537C1144.23 899.046 1121.4 893.997 1097.79 889.438C1074.19 884.879 1049.93 880.84 1025.68 877.937C1002.61 875.18 979.341 873.416 955.899 872.967C932.456 872.518 908.285 873.406 884.331 876.082C860.377 878.757 836.356 883.336 812.46 889.023C789.588 894.466 766.804 900.93 744.031 907.542C719.336 914.707 694.642 921.931 669.872 928.337C646.31 934.431 622.674 939.765 598.993 943.709C576.953 947.385 554.89 949.909 532.934 950.932C510.978 951.955 487.993 951.462 465.924 949.08C443.626 946.678 421.655 942.434 400.413 935.997C380.229 929.887 360.68 921.845 342.053 911.931C323.426 902.018 305.438 890.017 289.007 876.043C272.874 862.303 258.098 846.552 245.503 828.636C232.774 810.522 222.403 790.272 214.09 768.751C206.242 748.432 200.17 727.099 194.737 705.51C189.303 683.92 184.644 663.444 179.401 642.502C174.157 621.561 168.624 601.218 161.804 581.328C154.984 561.438 146.24 540.543 135.786 522.061C124.482 502.063 110.792 484.091 94.7463 469.014C78.7006 453.937 59.3226 440.847 39.4662 430.652C19.6099 420.457 -2.33643 412.321 -24.2301 405.793C-46.1238 399.265 -68.461 393.63 -90.416 387.077C-108.405 381.709 -126.354 376.214 -144.318 370.756C-163.043 365.062 -181.778 359.422 -200.577 353.942C-219.376 348.462 -239.535 342.79 -259.135 337.616C-278.735 332.442 -298.963 327.471 -319.054 323.014C-339.145 318.556 -360.031 314.421 -380.732 310.976C-401.647 307.501 -422.698 304.658 -443.914 302.606C-465.129 300.554 -486.407 299.306 -507.858 299.017C-529.31 298.729 -550.888 299.403 -572.521 301.214C-594.153 303.025 -614.305 305.762 -635.198 309.744C-636.294 309.96 -636.157 311.859 -635.066 311.656C-613.208 307.491 -591.318 304.598 -569.475 302.886C-547.928 301.198 -526.45 300.625 -505.085 301.008C-483.576 301.391 -462.185 302.742 -440.954 304.872C-419.839 306.998 -398.879 309.89 -378.071 313.422C-357.39 316.916 -336.865 321.034 -316.462 325.603C-296.06 330.172 -276.172 335.133 -256.179 340.452C-236.186 345.77 -217.297 351.115 -197.957 356.785C-179.142 362.286 -160.387 367.963 -141.631 373.669C-123.723 379.119 -105.83 384.577 -87.8926 389.924C-65.6876 396.535 -43.1426 402.096 -20.9919 408.871C0.745423 415.522 21.9995 423.637 42.1051 434.304C62.2107 444.971 80.9116 458.031 97.3771 474.307C113.843 490.582 126.231 508.186 137.126 528.433C147.236 547.206 155.358 567.464 162.209 588.367C169.061 609.271 174.178 628.903 179.282 649.602C184.386 670.301 189.295 691.865 194.717 712.807C200.139 733.748 206.66 755.676 214.897 775.824C223.135 795.971 234.239 816.76 247.248 834.386C260.258 852.012 274.95 867.086 291.115 880.424C307.67 894.091 325.597 905.709 344.411 915.455C363.224 925.201 382.729 932.968 402.952 938.865C424.099 945.035 445.936 949.082 468.075 951.32C490.142 953.558 512.551 953.947 535.05 952.786C557.549 951.625 578.701 949.091 600.533 945.402C624.188 941.405 647.793 936.029 671.329 929.911C695.981 923.5 720.544 916.309 745.117 909.18C767.981 902.548 790.867 896.068 813.841 890.638C836.814 885.208 861.764 880.475 885.749 877.869C909.821 875.254 933.83 874.445 957.65 874.988C981.47 875.532 1004.31 877.354 1027.35 880.168C1051.62 883.141 1075.68 887.179 1099.56 891.837C1123.44 896.495 1146.96 901.734 1170.53 907.138C1194.48 912.637 1218.42 918.188 1242.3 923.929C1266.17 929.67 1290.2 935.644 1314.03 941.922C1337.85 948.2 1361.17 954.661 1384.58 961.598C1408.19 968.589 1431.66 976.011 1454.94 983.957C1478.22 991.903 1499.51 999.673 1521.59 1008.09C1543.67 1016.51 1566.33 1025.49 1588.61 1034.42C1611.21 1043.49 1633.78 1052.64 1656.38 1061.68C1678.98 1070.73 1701.6 1079.63 1724.37 1088.24C1746.2 1096.49 1768.15 1104.44 1790.27 1111.92C1791.27 1112.25 1792.03 1110.41 1791.01 1110.07L1791.04 1110.01Z" fill="#AEAEAE"/>
<path d="M1779.75 1127.76C1756.21 1120.61 1732.96 1112.58 1709.94 1103.97C1686.91 1095.35 1663.91 1086.07 1641.13 1076.5C1618.36 1066.93 1595.68 1057.06 1573.05 1047.11C1550.75 1037.32 1528.48 1027.48 1506.12 1017.85C1484.05 1008.35 1461.9 999.085 1439.57 990.251C1416.2 981 1392.65 972.229 1368.96 963.848C1345.4 955.52 1321.72 947.557 1297.94 939.868C1274.17 932.179 1250.16 924.74 1226.17 917.482C1202.31 910.277 1178.42 903.171 1154.48 896.204C1131.05 889.369 1107.52 882.784 1083.75 877.027C1060.07 871.295 1036.15 866.35 1011.92 862.795C988.785 859.398 965.365 857.244 941.729 856.717C918.092 856.19 893.954 857.319 869.915 860.618C845.784 863.938 821.662 869.476 797.722 876.361C774.787 882.964 752.017 890.806 729.29 898.866C704.282 907.75 679.301 916.802 654.185 925.012C630.838 932.636 607.385 939.46 583.8 944.786C561.875 949.738 539.846 953.448 517.88 955.525C495.914 957.602 472.446 958.043 450.094 956.333C427.742 954.624 405.97 950.946 384.824 944.863C364.536 939.01 344.916 931.055 326.309 921.063C307.701 911.072 289.797 898.776 273.667 884.323C257.952 870.251 243.777 853.985 232.055 835.463C220.127 816.6 210.898 795.524 203.94 773.234C197.336 752.102 192.736 730.005 188.791 707.701C184.846 685.396 181.676 664.705 177.796 643.328C173.917 621.95 169.614 601.388 163.874 581.148C157.88 560.004 150.377 539.567 140.667 520.713C130.246 500.499 117.246 482.291 101.638 467.248C84.9558 451.157 65.6399 438.649 45.1082 429.068C24.5458 419.474 2.78865 412.873 -19.4384 408.025C-42.6702 402.959 -66.3466 399.643 -89.6618 394.871C-108.418 391.024 -127.091 386.881 -145.745 382.631C-164.398 378.382 -184.604 373.649 -204.024 369.148C-223.443 364.647 -244.081 359.926 -264.166 355.542C-284.894 351.014 -305.686 346.703 -326.57 342.769C-347.704 338.777 -368.931 335.162 -390.274 332.072C-411.796 328.953 -433.439 326.371 -455.213 324.495C-477.052 322.606 -499.027 321.434 -521.109 321.148C-543.201 320.858 -565.402 321.454 -587.667 323.124C-609.047 324.722 -630.493 327.309 -651.912 331.036C-653.009 331.222 -652.877 333.134 -651.78 332.947C-629.371 329.062 -606.953 326.396 -584.59 324.836C-562.334 323.277 -540.138 322.78 -518.055 323.152C-495.987 323.532 -474.032 324.781 -452.207 326.736C-430.382 328.691 -408.83 331.322 -387.318 334.494C-365.994 337.633 -344.797 341.293 -323.693 345.33C-302.589 349.367 -282.231 353.603 -261.6 358.136C-240.969 362.668 -221.249 367.19 -201.125 371.861C-181.751 376.358 -162.377 380.884 -142.984 385.303C-123.591 389.722 -105.632 393.72 -86.8304 397.486C-63.5316 402.15 -39.8806 405.47 -16.7185 410.68C6.44359 415.89 27.3219 422.638 47.8067 432.601C68.44 442.637 87.7267 455.748 104.203 472.585C119.342 488.054 131.797 506.671 141.757 527.085C151.125 546.287 158.27 567.051 163.996 588.416C169.458 608.787 173.618 629.735 177.341 650.821C181.162 672.432 184.481 694.226 188.454 715.784C192.427 737.342 197.437 759.805 204.415 780.63C211.766 802.564 221.448 823.194 233.733 841.557C246.017 859.92 260.076 875.268 275.837 888.9C292.019 902.903 309.74 914.71 328.416 924.472C347.092 934.234 366.791 941.992 387.123 947.619C408.246 953.465 430.098 956.974 452.234 958.511C474.406 960.049 496.902 959.544 519.451 957.345C541.406 955.206 563.415 951.431 585.324 946.43C608.893 941.054 632.33 934.181 655.651 926.533C680.778 918.298 705.768 909.221 730.797 900.346C753.483 892.298 776.212 884.497 799.108 877.963C823.053 871.124 847.202 865.639 871.338 862.393C895.581 859.148 919.781 858.129 943.73 858.767C967.678 859.406 990.544 861.637 1013.56 865.087C1038.04 868.758 1062.2 873.826 1086.11 879.694C1110.02 885.562 1133.33 892.146 1156.74 898.989C1180.71 905.997 1204.65 913.108 1228.55 920.346C1252.46 927.583 1276.45 935.043 1300.26 942.772C1323.95 950.457 1347.55 958.416 1371.02 966.752C1394.49 975.088 1418.26 983.974 1441.62 993.266C1464.98 1002.56 1486 1011.39 1508.01 1020.9C1530.38 1030.55 1552.67 1040.41 1574.98 1050.2C1597.3 1059.98 1620.13 1069.93 1642.85 1079.44C1665.57 1088.95 1688.54 1098.18 1711.68 1106.8C1733.89 1115.05 1756.3 1122.77 1778.99 1129.66C1780.01 1129.97 1780.75 1128.12 1779.73 1127.81L1779.75 1127.76Z" fill="#A1A1A1"/>
<path d="M1768.48 1145.53C1744.34 1138.98 1720.61 1131.2 1697.2 1122.55C1673.69 1113.85 1650.5 1104.28 1627.55 1094.2C1604.72 1084.16 1582.11 1073.6 1559.6 1062.85C1537.34 1052.21 1515.17 1041.37 1492.96 1030.65C1470.74 1019.93 1448.87 1009.54 1426.63 999.442C1403.27 988.821 1379.71 978.647 1356.02 968.822C1332.33 958.996 1308.96 949.701 1285.28 940.548C1261.42 931.325 1237.45 922.361 1213.43 913.531C1189.68 904.809 1165.88 896.156 1142.04 887.684C1118.66 879.385 1095.16 871.394 1071.3 864.46C1047.77 857.612 1023.89 851.757 999.611 847.554C976.339 843.529 952.686 841.009 928.769 840.44C904.852 839.872 880.437 841.275 856.151 845.333C832.034 849.358 808.013 855.824 784.243 863.877C761.381 871.625 738.772 880.805 716.239 890.3C690.97 900.951 665.765 911.943 640.368 922.028C617.277 931.198 593.998 939.536 570.514 946.261C548.603 952.534 526.525 957.453 504.439 960.596C482.352 963.739 458.517 965.177 435.863 964.188C413.529 963.201 391.488 960.044 370.253 954.239C349.018 948.434 330.146 940.808 311.558 930.738C292.919 920.648 275.365 908.308 259.592 893.556C243.82 878.804 230.333 862.215 219.337 842.985C208.149 823.406 199.98 801.556 194.303 778.568C188.912 756.752 185.716 734.064 183.2 711.221C180.684 688.378 178.909 667.206 176.331 645.31C173.8 623.861 170.613 602.563 165.947 581.869C161.084 560.31 154.583 539.39 145.637 520.087C136.191 499.695 124.043 481.23 109.075 466.016C92.486 449.162 72.7609 436.461 51.6632 427.252C30.5656 418.042 8.61591 412.478 -14.0439 409.057C-36.7037 405.637 -61.8911 404.27 -85.7926 401.807C-105.838 399.74 -125.749 396.871 -145.591 393.829C-165.433 390.787 -185.96 387.354 -206.087 383.898C-226.967 380.308 -247.833 376.624 -268.719 373.019C-290.094 369.33 -311.494 365.731 -332.952 362.395C-354.41 359.059 -376.701 355.844 -398.697 353.134C-420.999 350.387 -443.387 348.062 -465.897 346.36C-488.406 344.658 -511.209 343.567 -534.019 343.288C-556.757 343.009 -579.604 343.529 -602.512 345.055C-624.505 346.521 -646.543 348.897 -668.591 352.356C-669.683 352.53 -669.556 354.425 -668.459 354.267C-645.334 350.642 -622.212 348.203 -599.156 346.78C-576.257 345.365 -553.424 344.939 -530.695 345.3C-507.981 345.669 -485.366 346.813 -462.861 348.585C-440.376 350.348 -418.002 352.71 -395.721 355.507C-373.439 358.303 -351.866 361.443 -330.051 364.866C-308.236 368.289 -287.259 371.846 -265.904 375.526C-244.549 379.207 -224.376 382.783 -203.593 386.347C-183.564 389.779 -163.525 393.129 -143.409 396.167C-123.297 399.218 -103.126 402.092 -82.8019 404.085C-58.8607 406.45 -34.7072 407.728 -11.0563 411.52C12.5945 415.312 33.6874 421.174 54.3861 430.665C75.0847 440.157 95.3699 453.856 111.714 471.611C126.148 487.296 137.736 506.207 146.635 526.836C155.07 546.405 161.154 567.471 165.698 589.088C170.241 610.704 173.008 631.247 175.423 652.72C177.895 674.788 179.748 697.035 182.342 719.066C184.936 741.097 188.561 764.401 194.381 785.975C200.201 807.549 209.17 829.979 220.739 849.025C232.308 868.072 245.965 883.915 261.481 897.92C276.996 911.925 295.11 924.348 313.823 934.168C332.525 943.983 352.293 951.598 372.744 956.93C393.905 962.448 415.817 965.396 438.006 966.211C460.196 967.026 483.252 965.603 506.014 962.289C528.084 959.068 550.141 954.083 572.037 947.761C595.378 941.007 618.509 932.681 641.468 923.543C666.774 913.479 691.892 902.524 717.086 891.914C739.791 882.345 762.577 873.108 785.622 865.348C809.499 857.324 833.653 850.883 857.883 846.96C882.114 843.038 906.678 841.737 930.785 842.425C954.891 843.113 978.113 845.731 1001.28 849.813C1025.89 854.164 1050.09 860.221 1073.93 867.25C1097.78 874.278 1121.19 882.307 1144.53 890.634C1167.88 898.962 1192.08 907.751 1215.8 916.473C1239.8 925.294 1263.74 934.279 1287.58 943.522C1311.42 952.766 1334.7 962.053 1358.07 971.779C1381.85 981.67 1405.48 991.914 1428.93 1002.61C1451.02 1012.7 1472.96 1023.13 1494.83 1033.71C1516.71 1044.29 1539.25 1055.3 1561.53 1065.93C1584.13 1076.71 1606.84 1087.28 1629.78 1097.31C1652.68 1107.32 1675.79 1116.8 1699.25 1125.39C1722.72 1133.98 1744.58 1141.07 1767.78 1147.35C1768.79 1147.63 1769.55 1145.78 1768.52 1145.5L1768.48 1145.53Z" fill="#949494"/>
<path d="M1757.21 1163.28C1732.5 1157.35 1708.27 1149.82 1684.48 1141.13C1660.73 1132.45 1637.43 1122.63 1614.46 1112.08C1591.34 1101.47 1568.55 1090.1 1545.93 1078.41C1523.64 1066.87 1501.5 1054.98 1479.36 1043.12C1457.48 1031.4 1435.57 1019.72 1413.52 1008.38C1390.21 996.392 1366.72 984.803 1343.09 973.53C1319.47 962.257 1296.18 951.493 1272.57 940.826C1248.96 930.16 1224.83 919.542 1200.85 909.142C1176.87 898.742 1153.85 888.774 1130.25 878.855C1106.78 868.989 1083.13 859.565 1058.99 851.404C1034.86 843.243 1011.63 836.749 987.198 831.984C963.844 827.426 940.025 824.61 915.895 824.098C891.673 823.578 867.125 825.4 842.65 830.224C818.174 835.048 794.727 842.418 771.214 851.604C747.994 860.68 725.163 871.442 702.459 882.57C677.324 894.891 652.327 907.667 627.066 919.508C604.209 930.217 581.12 940.06 557.711 948.159C535.85 955.724 513.754 961.837 491.566 966.026C469.378 970.215 445.239 972.644 422.322 972.365C399.405 972.086 377.858 969.471 356.566 963.986C335.972 958.683 316.106 950.928 297.441 940.784C278.776 930.641 261.281 918.067 245.739 902.922C230.499 888.084 217.198 870.712 206.933 850.877C196.669 831.041 189.208 807.819 184.744 784.09C180.543 761.683 178.669 738.484 177.518 715.205C176.366 691.926 175.924 669.862 174.602 647.3C173.28 624.738 171.299 603.869 167.666 582.763C164.034 561.657 158.458 539.653 150.398 519.92C142.051 499.485 130.909 480.854 116.843 465.404C100.508 447.451 80.421 434.232 58.7493 425.121C37.7268 416.285 15.2183 411.281 -7.72954 409.017C-31.9354 406.631 -56.5778 407.242 -81.0813 407.037C-102.587 406.855 -123.942 405.619 -145.229 403.953C-166.069 402.324 -186.837 400.224 -207.547 397.89C-228.256 395.556 -250.848 392.763 -272.468 390.033C-294.638 387.225 -316.813 384.371 -339.008 381.653C-361.202 378.934 -384.327 376.255 -407.067 373.946C-430.081 371.611 -453.159 369.609 -476.317 368.131C-499.608 366.629 -522.985 365.664 -546.445 365.408C-569.906 365.152 -593.665 365.605 -617.373 366.994C-641.081 368.382 -662.639 370.481 -685.301 373.664C-686.398 373.822 -686.261 375.721 -685.169 375.575C-661.323 372.227 -637.497 370.014 -613.732 368.72C-590.185 367.438 -566.701 367.074 -543.315 367.4C-519.93 367.725 -496.502 368.768 -473.226 370.307C-449.95 371.847 -427.019 373.89 -404.025 376.245C-381.31 378.587 -358.659 381.232 -336.036 384.009C-313.414 386.785 -291.728 389.585 -269.578 392.385C-248.071 395.098 -226.544 397.762 -204.973 400.171C-183.403 402.581 -163.425 404.548 -142.545 406.136C-121.665 407.724 -99.6756 408.887 -78.0633 409.012C-53.5199 409.147 -28.866 408.655 -4.6775 411.32C18.2476 413.847 40.6787 419.219 61.5533 428.51C83.3175 438.188 103.311 452.198 119.275 471.073C132.77 487.022 143.311 506.026 151.116 526.685C158.733 546.868 163.801 568.51 167.2 590.637C170.599 612.764 172.188 633.103 173.301 654.68C174.478 677.455 174.944 700.372 176.222 723.131C177.547 746.423 179.797 769.573 184.51 791.83C189.448 815.178 197.208 837.334 208.18 857.126C218.814 876.339 232.379 893.117 247.685 907.466C262.99 921.815 280.968 934.369 299.65 944.205C318.332 954.041 338.374 961.595 359.026 966.636C379.678 971.677 402.374 974.241 424.678 974.33C447.349 974.425 470.273 972.062 493.115 967.666C515.286 963.399 537.361 957.22 559.197 949.602C582.473 941.478 605.415 931.675 628.145 921.015C653.411 909.162 678.424 896.378 703.558 884.057C726.248 872.937 749.068 862.199 772.263 853.156C795.458 844.113 819.925 836.541 844.102 831.868C868.279 827.195 893.667 825.412 918.13 826.1C942.593 826.789 965.837 829.702 989.06 834.35C1013.74 839.284 1037.87 846.243 1061.55 854.367C1085.24 862.49 1109.05 872.065 1132.41 881.915C1155.77 891.764 1179.75 902.136 1203.36 912.388C1227.24 922.759 1251.05 933.261 1274.76 943.985C1298.48 954.709 1321.91 965.571 1345.3 976.762C1368.68 987.953 1392.41 999.694 1415.7 1011.72C1437.69 1023.07 1459.54 1034.73 1481.36 1046.43C1503.19 1058.14 1525.67 1070.19 1548 1081.7C1570.34 1093.21 1593.15 1104.54 1616.13 1115.02C1639.28 1125.59 1662.78 1135.42 1686.72 1144.06C1710.66 1152.7 1732.79 1159.45 1756.46 1165.14C1757.49 1165.38 1758.24 1163.54 1757.2 1163.3L1757.21 1163.28Z" fill="#868686"/>
<path d="M1745.7 1180.99C1720.36 1175.67 1695.58 1168.35 1671.36 1159.57C1647.15 1150.79 1623.73 1140.67 1600.62 1129.58C1577.41 1118.45 1554.63 1106.37 1532.11 1093.8C1509.58 1081.23 1487.75 1068.43 1465.73 1055.44C1443.71 1042.44 1422.15 1029.64 1400.22 1017.02C1376.98 1003.65 1353.56 990.618 1330.02 977.864C1306.78 965.275 1283.43 952.94 1259.98 940.781C1236.22 928.454 1212.35 916.339 1188.43 904.319C1164.5 892.299 1141.74 880.818 1118.25 869.426C1094.75 858.034 1071.2 847.249 1046.92 837.96C1023.67 829.054 999.865 821.554 975.41 816.28C951.903 811.217 927.817 808.15 903.378 807.728C878.938 807.307 854.049 809.62 829.348 815.297C805.353 820.815 781.623 829.271 758.376 839.622C735.174 849.949 712.476 862.152 689.961 874.785C664.896 888.849 640.02 903.475 614.813 917.125C592.343 929.291 569.599 940.546 546.404 950.003C524.46 958.951 502.179 966.318 479.733 971.618C457.288 976.918 433.173 980.315 410.046 980.794C387.529 981.262 365.245 979.208 343.778 974.067C322.985 969.083 302.932 961.468 284.164 951.283C265.443 941.131 247.962 928.377 232.599 912.904C217.236 897.431 204.583 879.834 194.948 859.438C185.314 839.041 178.803 815.202 175.464 790.983C172.273 767.897 171.615 744.102 171.75 720.284C171.881 697.064 172.765 673.748 172.723 650.545C172.688 628.503 171.815 606.536 169.283 585.03C166.751 563.524 162.274 541.006 155.144 520.676C148.014 500.346 137.619 480.687 124.261 464.75C108.46 445.884 88.5346 432.058 66.6843 422.889C44.8339 413.719 22.5407 409.36 -0.789772 407.956C-25.5816 406.463 -50.7671 408.656 -75.8691 410.555C-98.5814 412.274 -121.186 413.078 -143.74 412.988C-166.293 412.898 -186.909 412.16 -208.39 411.03C-230.883 409.849 -253.3 408.242 -275.699 406.442C-298.616 404.604 -321.516 402.573 -344.405 400.547C-367.88 398.47 -391.35 396.409 -414.858 394.562C-438.687 392.685 -462.56 391.034 -486.499 389.785C-510.592 388.531 -534.745 387.695 -558.979 387.471C-583.213 387.246 -607.563 387.661 -631.959 388.901C-656.356 390.14 -678.669 392.048 -702.076 394.959C-703.174 395.088 -703.032 397.004 -701.944 396.871C-677.439 393.831 -652.949 391.829 -628.536 390.667C-604.124 389.506 -579.819 389.173 -555.575 389.459C-531.35 389.737 -507.206 390.625 -483.133 391.928C-459.219 393.21 -435.366 394.911 -411.542 396.8C-387.718 398.689 -364.763 400.728 -341.389 402.792C-318.016 404.857 -295.514 406.841 -272.535 408.675C-250.254 410.442 -227.94 412.008 -205.564 413.156C-184.043 414.245 -162.47 414.94 -140.813 414.954C-118.062 414.967 -95.2762 413.978 -72.3709 412.223C-47.3048 410.296 -22.173 408.324 2.51565 410.161C25.8904 411.897 48.7814 416.984 69.8924 426.484C91.0033 435.985 111.174 450.852 126.398 470.501C139.202 487.015 148.807 506.599 155.554 527.703C162.3 548.807 166.144 570.627 168.382 593.158C170.619 615.689 171.103 636.44 170.968 658.343C170.819 681.784 169.938 705.329 170.002 728.742C170.067 752.154 171.148 776.492 174.953 799.497C178.758 822.503 185.799 845.913 196.185 866.212C206.572 886.511 219.643 903.276 234.875 917.925C250.406 932.865 267.964 945.135 286.665 954.893C305.51 964.738 325.58 972.017 346.371 976.714C367.916 981.572 390.254 983.376 412.809 982.666C435.364 981.956 458.771 978.602 481.682 973.09C504.101 967.68 526.351 960.214 548.243 951.217C571.332 941.731 593.984 930.467 616.347 918.33C641.645 904.603 666.611 889.898 691.783 875.806C714.253 863.226 736.907 851.105 760.063 840.86C783.22 830.615 807.341 822.131 831.491 816.761C855.64 811.391 881.562 809.108 906.3 809.765C931.037 810.421 954.544 813.654 977.915 818.877C1002.72 824.406 1026.85 832.264 1050.4 841.478C1074.49 850.894 1097.99 861.785 1121.25 873.14C1144.52 884.494 1168.18 896.395 1191.56 908.172C1215.37 920.147 1239.14 932.233 1262.79 944.532C1286.45 956.83 1309.76 969.165 1333.08 981.828C1356.63 994.627 1380.04 1007.68 1403.26 1021.11C1425.1 1033.73 1446.79 1046.61 1468.51 1059.43C1490.23 1072.25 1512.49 1085.25 1534.76 1097.62C1557.32 1110.13 1580.13 1122.13 1603.4 1133.18C1626.63 1144.2 1650.3 1154.28 1674.52 1162.87C1698.74 1171.47 1721.24 1177.92 1745.34 1182.97C1746.38 1183.19 1746.69 1181.24 1745.65 1181.02L1745.7 1180.99Z" fill="#797979"/>
<path d="M1734.43 1198.74C1708.57 1194.07 1683.34 1187.01 1658.76 1178.19C1634.18 1169.36 1610.53 1158.91 1587.29 1147.29C1563.82 1135.55 1540.91 1122.67 1518.34 1109.15C1496.01 1095.78 1474.04 1081.79 1452.16 1067.63C1430.28 1053.48 1408.65 1039.31 1386.79 1025.35C1363.78 1010.65 1340.59 996.248 1317.27 982.071C1294.13 967.989 1270.85 954.129 1247.51 940.411C1224.08 926.645 1200.54 913.05 1176.97 899.542C1153.4 886.033 1130.42 872.764 1106.94 859.805C1083.46 846.847 1060.31 834.893 1036.06 824.513C1011.81 814.133 988.701 806.158 963.884 800.367C940.434 794.898 916.336 791.626 891.842 791.311C867.052 790.991 841.924 793.808 817.013 800.329C793.036 806.598 769.434 816.063 746.443 827.547C723.032 839.248 700.284 853.017 677.766 867.279C652.866 883.054 628.233 899.494 603.187 914.895C581.109 928.477 558.68 941.131 535.677 951.909C513.833 962.141 491.545 970.763 468.994 977.15C445.768 983.736 422.263 987.98 398.921 989.287C375.578 990.594 353.936 989.128 332.332 984.446C311.248 979.888 290.916 972.432 271.951 962.267C252.985 952.102 235.585 939.324 220.336 923.597C205.088 907.869 192.577 889.744 183.456 868.783C174.079 847.218 168.605 823.34 166.252 798.59C163.9 773.839 164.462 750.022 165.846 725.464C167.23 700.906 169.373 677.798 170.607 653.994C171.76 631.659 172.023 609.35 170.57 587.407C169.064 564.829 165.745 542.563 159.596 521.656C153.347 500.438 144.086 480.707 131.485 464.161C116.418 444.39 96.8769 429.847 75.0442 420.428C53.5593 411.177 30.1456 406.709 6.36394 405.952C-18.7666 405.151 -44.2395 408.558 -69.6371 412.339C-82.3283 414.225 -95.024 416.181 -107.704 417.657C-118.865 418.96 -130.029 419.946 -141.175 420.74C-163.649 422.341 -186.056 423.067 -208.414 423.228C-231.631 423.399 -254.793 422.963 -277.893 422.196C-300.993 421.428 -325.507 420.247 -349.258 418.974C-373.57 417.674 -397.852 416.244 -422.154 414.891C-446.456 413.539 -471.49 412.262 -496.215 411.282C-520.941 410.302 -546.065 409.633 -571.071 409.468C-596.104 409.308 -621.207 409.676 -646.368 410.779C-671.529 411.881 -694.537 413.595 -718.68 416.209C-719.773 416.326 -719.635 418.225 -718.548 418.121C-693.195 415.366 -667.893 413.591 -642.64 412.554C-617.386 411.517 -592.552 411.226 -567.611 411.436C-542.609 411.641 -517.683 412.359 -492.789 413.364C-467.895 414.37 -443.426 415.661 -418.783 417.022C-394.14 418.384 -370.245 419.801 -345.954 421.092C-321.663 422.384 -298.468 423.476 -274.676 424.236C-251.678 424.963 -228.638 425.349 -205.529 425.12C-183.147 424.898 -160.689 424.106 -138.19 422.416C-127.065 421.585 -115.922 420.561 -104.772 419.197C-92.174 417.659 -79.5701 415.695 -66.9854 413.837C-41.3691 410.045 -15.6807 406.81 9.62195 408.009C33.4788 409.139 56.9182 414.104 78.2626 424.027C99.878 434.074 118.939 449.423 133.352 469.903C145.431 487.068 154.056 507.286 159.759 528.855C165.462 550.425 168.206 572.674 169.317 595.465C170.428 618.256 169.84 639.719 168.473 662.025C167.003 686.148 164.816 710.311 163.702 734.406C162.587 758.501 162.525 783.377 165.447 807.128C168.447 831.51 174.668 854.832 184.644 875.766C194.62 896.7 207.398 913.661 222.567 928.556C237.735 943.451 255.633 956.086 274.456 965.779C293.448 975.554 313.74 982.637 334.745 986.92C356.484 991.356 379.013 992.508 401.702 990.995C424.869 989.445 448.154 985.098 471.19 978.422C493.633 971.92 515.809 963.252 537.536 952.988C560.432 942.18 582.754 929.526 604.741 915.964C629.953 900.416 654.757 883.845 679.854 867.993C702.161 853.903 724.718 840.314 747.921 828.773C771.125 817.231 795.276 807.673 819.657 801.524C844.037 795.375 869.746 792.678 894.523 793.236C919.229 793.793 943.538 797.308 967.139 803.08C991.949 809.155 1015.96 817.779 1039.27 827.981C1063.5 838.583 1086.96 850.877 1110.13 863.737C1133.56 876.745 1156.79 890.146 1180.05 903.486C1203.6 916.986 1227.1 930.593 1250.51 944.367C1274.05 958.22 1297.51 972.213 1320.85 986.442C1344.15 1000.66 1367.34 1015.1 1390.35 1029.85C1412.09 1043.8 1433.71 1057.96 1455.42 1071.96C1477.12 1085.96 1499.03 1099.83 1521.23 1113.04C1543.44 1126.26 1566.65 1139.2 1590.1 1150.78C1613.46 1162.32 1637.39 1172.71 1661.97 1181.33C1686.55 1189.94 1709.52 1196.13 1734.15 1200.59C1735.2 1200.78 1735.51 1198.83 1734.46 1198.64L1734.43 1198.74Z" fill="#6B6B6B"/>
<path d="M1723.16 1216.51C1696.82 1212.49 1671.15 1205.71 1646.25 1196.86C1621.33 1187.99 1597.17 1177.09 1573.69 1164.85C1550.08 1152.54 1527.13 1138.88 1504.63 1124.46C1482.35 1110.19 1460.5 1095.16 1438.8 1079.89C1417.13 1064.63 1395.6 1049.14 1373.92 1033.89C1350.89 1017.69 1327.71 1001.75 1304.43 985.996C1281.14 970.244 1258.29 955.051 1235.11 939.784C1211.77 924.426 1188.35 909.22 1164.89 894.071C1141.44 878.922 1119 864.267 1095.75 849.902C1072.78 835.706 1049.38 822.239 1025.04 810.763C1001.97 799.889 978.082 790.826 953.28 784.583C929.597 778.634 905.15 775.136 880.26 774.975C855.228 774.815 829.852 778.189 804.792 785.58C780.661 792.702 757.045 803.262 734.19 816.001C710.909 828.97 688.425 844.118 666.247 859.803C641.443 877.346 616.992 895.632 592.032 912.855C570.31 927.852 548.16 941.877 525.313 953.977C502.466 966.076 481.03 975.443 458.232 982.973C435.433 990.504 411.375 995.854 387.848 997.973C364.931 1000.05 342.181 999.182 320.208 994.824C298.236 990.465 278.249 983.276 259.115 973.058C240.201 962.971 222.66 949.95 207.566 933.928C192.673 918.115 180.261 899.272 171.705 877.824C163.148 856.376 158.172 830.911 156.815 805.548C155.459 780.184 157.137 755.545 159.726 730.386C162.241 705.941 165.712 681.511 168.192 657.065C170.492 634.449 171.815 611.811 171.38 589.435C170.945 567.06 168.622 543.651 163.366 522.091C158.08 500.431 149.677 480.103 137.701 462.951C123.42 442.496 104.36 427.291 82.6983 417.625C60.7752 407.84 36.6044 403.481 12.1319 403.318C-13.3535 403.132 -39.1149 407.637 -64.7294 413.046C-90.3439 418.454 -114.199 423.772 -139.028 427.381C-162.298 430.748 -185.559 433.06 -208.772 434.605C-231.985 436.151 -256.685 437.024 -280.562 437.358C-305.248 437.695 -329.889 437.506 -354.492 437.047C-379.665 436.587 -404.805 435.84 -429.94 435.052C-455.076 434.264 -480.817 433.417 -506.282 432.767C-531.946 432.109 -557.633 431.628 -583.366 431.556C-609.1 431.484 -635.119 431.826 -661.075 432.808C-685.816 433.752 -710.611 435.274 -735.444 437.595C-736.532 437.699 -736.395 439.599 -735.312 439.507C-709.269 437.073 -683.263 435.525 -657.321 434.608C-631.369 433.696 -605.466 433.407 -579.62 433.524C-553.973 433.632 -528.383 434.147 -502.821 434.821C-477.295 435.495 -451.792 436.346 -426.285 437.126C-401.18 437.902 -376.056 438.629 -350.909 439.064C-326.423 439.49 -301.895 439.633 -277.306 439.243C-253.46 438.868 -229.563 437.985 -205.619 436.305C-181.675 434.626 -159.381 432.324 -136.224 428.884C-111.375 425.197 -86.6483 419.545 -61.8507 414.364C-36.2101 409.009 -10.3955 404.725 15.0737 405.305C40.5429 405.884 64.2052 410.767 86.112 421.418C108.019 432.068 125.888 447.838 139.418 468.947C150.79 486.685 158.489 507.43 163.204 529.358C167.919 551.287 169.714 574.326 169.746 597.525C169.779 619.981 168.121 642.656 165.607 665.301C162.847 690.09 159.409 714.877 157.112 739.667C154.814 764.457 153.651 789.734 155.64 814.179C157.628 838.625 163.184 863.595 172.848 885.332C181.996 905.904 194.708 923.853 209.665 938.949C224.622 954.044 242.747 967 261.733 976.701C280.719 986.402 301.488 993.421 322.779 997.347C344.667 1001.39 367.297 1001.94 390.075 999.7C412.853 997.465 437.174 992.021 460.367 984.22C483.56 976.42 505.363 966.673 527.121 955.063C549.936 942.894 572.06 928.815 593.772 913.785C618.641 896.583 643.016 878.338 667.765 860.873C690.044 845.142 712.64 829.982 736.043 817.035C759.445 804.087 782.972 793.748 807.339 786.807C831.706 779.867 857.842 776.555 882.861 776.982C907.881 777.409 932.611 781.179 956.43 787.469C980.25 793.759 1005.41 803.505 1028.6 814.704C1051.8 825.902 1076.3 840.114 1099.28 854.458C1122.27 868.802 1145.38 883.856 1168.35 898.696C1191.86 913.882 1215.33 929.15 1238.7 944.565C1261.9 959.853 1285.02 975.268 1308.03 990.867C1331.25 1006.61 1354.35 1022.54 1377.3 1038.73C1398.85 1053.94 1420.28 1069.36 1441.88 1084.5C1463.61 1099.76 1485.52 1114.73 1507.88 1128.92C1530.27 1143.14 1553.11 1156.57 1576.61 1168.64C1600.1 1180.72 1624.37 1191.45 1649.36 1200.1C1673.17 1208.33 1697.69 1214.64 1722.8 1218.48C1723.86 1218.64 1724.17 1216.7 1723.11 1216.53L1723.16 1216.51Z" fill="#5E5E5E"/>
<path d="M1711.87 1234.26C1684.9 1230.87 1658.63 1224.32 1633.26 1215.35C1607.9 1206.38 1583.52 1195.1 1559.89 1182.27C1536.27 1169.44 1512.9 1154.74 1490.34 1139.3C1467.78 1123.85 1445.97 1107.68 1424.26 1091.1C1402.63 1074.59 1381.2 1057.75 1359.62 1041.15C1336.74 1023.53 1313.71 1006.11 1290.6 988.852C1267.58 971.677 1244.47 954.655 1221.31 937.71C1198.03 920.687 1174.65 903.795 1151.26 886.956C1127.87 870.117 1106.01 854.139 1082.98 838.404C1060.14 822.805 1036.73 808.104 1012.2 795.68C989.282 784.064 965.386 774.484 940.461 768.02C915.535 761.555 891.309 758.275 865.835 758.622C840.36 758.969 814.72 763.352 789.486 772.031C765.519 780.277 742.242 792.088 719.852 806.059C696.305 820.75 673.724 837.731 651.498 855.213C626.947 874.516 602.789 894.55 577.989 913.409C556.701 929.597 534.889 944.701 512.261 957.847C489.634 970.993 467.464 981.679 444.253 990.115C421.042 998.551 396.752 1004.57 372.812 1007.15C348.872 1009.73 326.937 1008.93 304.878 1004.58C283.258 1000.32 262.437 992.781 243.233 982.12C224.294 971.623 206.834 957.991 192.138 941.157C177.443 924.324 165.861 904.514 158.326 882.006C150.791 859.497 147.297 833.215 147.329 807.268C147.359 781.706 150.393 755.856 154.279 730.162C158.165 704.469 162.759 680.29 166.306 655.318C169.607 632.105 171.789 608.812 172.054 585.733C172.319 562.653 170.622 539.311 165.79 517.378C160.958 495.445 152.775 474.691 140.797 457.338C126.312 436.358 106.636 421.118 84.241 411.914C61.4778 402.563 36.3909 399.149 11.1788 400.26C-14.0334 401.371 -41.299 407.514 -67.3587 414.616C-93.4184 421.717 -117.819 428.859 -143.231 434.149C-166.968 439.085 -190.748 442.832 -214.511 445.685C-238.275 448.537 -263.873 450.693 -288.502 452.096C-313.131 453.499 -338.774 454.293 -363.836 454.678C-389.458 455.066 -415.048 455.052 -440.615 454.862C-466.182 454.672 -492.672 454.324 -518.692 454.022C-544.846 453.724 -570.998 453.483 -597.198 453.538C-623.399 453.592 -649.672 453.918 -675.981 454.772C-702.29 455.626 -726.554 456.89 -751.905 458.874C-752.983 458.954 -753.308 460.91 -752.215 460.822C-725.858 458.758 -699.538 457.436 -673.27 456.623C-646.966 455.81 -620.712 455.505 -594.491 455.487C-568.27 455.47 -542.153 455.71 -516.015 456.017C-490.004 456.314 -463.993 456.67 -437.969 456.844C-411.944 457.019 -386.858 457.016 -361.246 456.595C-335.635 456.174 -311.107 455.374 -285.97 453.89C-261.529 452.453 -237.045 450.377 -212.545 447.378C-188.807 444.472 -165.033 440.68 -141.322 435.691C-115.844 430.327 -90.5974 422.855 -65.2425 415.998C-39.0605 408.917 -12.5975 402.908 13.6969 402.119C39.1161 401.349 64.33 405.214 87.0449 415.304C109.76 425.394 128.306 441.165 142.106 462.755C153.571 480.702 161.092 501.861 165.394 524.195C169.695 546.529 170.869 569.902 170.196 593.375C169.529 616.478 167.017 639.766 163.481 662.942C159.592 688.377 154.859 713.757 151.245 739.217C147.631 764.677 145.103 790.274 145.695 815.472C146.299 841.289 150.386 866.482 158.968 889.312C167.104 910.977 179.192 930.004 193.864 946.013C208.839 962.331 226.416 975.466 245.406 985.598C264.397 995.73 285.454 1003.04 307.006 1007.02C328.557 1011.01 351.842 1011.5 374.779 1008.87C398.712 1006.13 422.666 1000.06 446.139 991.391C469.177 982.884 491.73 971.896 513.623 959.126C536.159 945.971 557.911 930.871 579.137 914.716C603.852 895.922 627.939 875.945 652.41 856.696C674.786 839.103 697.504 822.019 721.234 807.288C743.811 793.264 767.302 781.424 791.489 773.31C816.943 764.764 842.83 760.623 868.43 760.555C894.03 760.487 919.186 764.257 943.381 770.856C968.356 777.669 992.27 787.585 1015.23 799.489C1039.81 812.232 1063.25 827.217 1086.16 843.021C1109.21 858.903 1131.86 875.445 1154.6 891.819C1177.33 908.193 1201.31 925.541 1224.57 942.568C1247.74 959.53 1270.85 976.573 1293.86 993.772C1316.98 1011.06 1340.01 1028.51 1362.88 1046.16C1384.34 1062.72 1405.67 1079.48 1427.24 1095.86C1448.99 1112.41 1470.97 1128.6 1493.51 1143.86C1516.05 1159.13 1538.97 1173.37 1562.77 1186.09C1586.58 1198.81 1610.97 1209.85 1636.37 1218.55C1661.77 1227.25 1685.8 1232.96 1711.55 1236.2C1712.62 1236.33 1712.92 1234.4 1711.86 1234.25L1711.87 1234.26Z" fill="#515151"/>
<path d="M1700.6 1252.01C1673.03 1249.27 1646.21 1242.96 1620.38 1233.88C1594.55 1224.81 1569.73 1213.03 1545.86 1199.51C1521.71 1185.84 1498.51 1170.38 1475.96 1153.93C1453.52 1137.56 1431.72 1120.19 1410.19 1102.43C1388.5 1084.55 1367.09 1066.26 1345.53 1048.19C1322.71 1029.05 1299.78 1010.08 1276.75 991.245C1253.96 972.59 1231.08 954.042 1208.17 935.568C1185.26 917.093 1161.86 898.421 1138.66 879.93C1115.46 861.439 1093.86 843.939 1070.93 826.798C1048.23 809.825 1024.81 793.905 1000.07 780.526C977.115 768.122 953.03 758.008 927.771 751.309C903.349 744.834 877.896 741.444 852.01 742.369C826.125 743.294 800.393 748.698 775.126 758.578C750.832 768.078 727.454 781.465 705.122 797.003C681.401 813.51 658.828 832.324 636.632 851.62C612.43 872.65 588.636 894.374 564.019 914.723C542.968 932.121 521.311 948.403 498.705 962.616C476.615 976.493 453.726 988.461 430.253 997.721C406.426 1007.12 381.999 1013.65 357.59 1016.6C333.181 1019.55 311.348 1018.8 289.126 1014.35C267.234 1009.97 246.202 1002.1 226.945 990.89C207.945 979.839 190.583 965.404 176.371 947.578C162.158 929.753 151.371 908.592 145.035 884.937C138.699 861.282 136.814 834.105 138.32 807.566C139.825 781.027 144.277 754.49 149.484 728.115C154.691 701.739 160.436 677.21 164.939 651.666C169.116 627.991 172.039 604.154 172.888 580.481C173.737 556.808 172.489 533.032 167.814 510.591C163.172 488.305 154.972 467.387 142.724 450.053C127.769 428.884 107.283 413.975 84.1177 405.561C60.4772 396.97 34.5939 394.766 8.77072 397.274C-18.0642 399.874 -44.8139 407.655 -71.2379 416.397C-97.6619 425.138 -122.725 434.042 -148.756 440.984C-173.067 447.461 -197.504 452.63 -221.946 456.782C-246.388 460.933 -272.014 464.25 -297.034 466.71C-322.76 469.243 -348.46 470.972 -374.123 472.201C-400.306 473.449 -426.449 474.156 -452.548 474.58C-478.648 475.004 -505.499 475.139 -531.948 475.222C-558.397 475.305 -585.087 475.305 -611.683 475.486C-638.278 475.667 -664.939 476.008 -691.6 476.734C-717.229 477.434 -742.904 478.515 -768.604 480.158C-769.688 480.222 -770.008 482.165 -768.915 482.106C-742.213 480.395 -715.55 479.312 -688.919 478.602C-662.171 477.896 -635.449 477.58 -608.752 477.412C-582.054 477.243 -555.614 477.242 -529.032 477.156C-502.451 477.069 -476.312 476.932 -449.913 476.472C-423.513 476.012 -397.697 475.288 -371.524 474.007C-345.352 472.726 -320.381 470.975 -294.762 468.413C-269.773 465.911 -244.741 462.655 -219.731 458.332C-194.721 454.01 -171.042 448.922 -146.833 442.403C-120.757 435.379 -95.0101 426.165 -69.1282 417.648C-43.2462 409.131 -15.6532 401.233 11.287 398.96C38.2271 396.688 63.5462 399.437 87.175 408.853C110.804 418.268 129.849 433.597 144.037 455.343C155.778 473.344 163.328 494.815 167.384 517.493C171.44 540.171 172.195 564.434 170.861 588.483C169.549 612.127 166.279 635.881 161.836 659.477C156.975 685.32 151.008 711.046 146.111 736.89C141.133 763.171 137.133 789.677 136.282 816.008C135.437 842.441 138.002 868.549 145.379 892.509C152.435 915.439 163.815 935.81 178.289 952.869C192.763 969.928 210.164 983.765 229.109 994.364C248.432 1005.17 269.456 1012.65 291.283 1016.75C313.11 1020.85 336.613 1021.24 359.831 1018.24C384.076 1015.11 408.288 1008.43 431.946 999.004C455.321 989.691 478.113 977.697 500.112 963.812C522.555 949.648 544.082 933.457 565.006 916.165C589.699 895.746 613.563 873.965 637.841 852.865C660.163 833.463 682.867 814.53 706.746 798.015C729.043 782.592 752.387 769.32 776.642 759.947C802.28 750.031 828.593 744.804 854.645 744.204C880.754 743.612 906.388 747.317 930.947 754.191C956.255 761.267 980.349 771.77 1003.33 784.511C1028.01 798.198 1051.36 814.405 1074.05 831.545C1096.98 848.871 1119.38 867.025 1141.91 884.973C1165.17 903.518 1188.41 922.083 1211.57 940.771C1234.5 959.266 1257.37 977.826 1280.16 996.51C1302.95 1015.19 1325.97 1034.25 1348.72 1053.36C1370.17 1071.38 1391.49 1089.57 1413.11 1107.32C1434.73 1125.08 1456.71 1142.44 1479.31 1158.74C1501.79 1174.93 1524.92 1190.09 1548.98 1203.47C1572.87 1216.75 1597.69 1228.25 1623.53 1237.02C1649.36 1245.8 1673.99 1251.3 1700.34 1253.92C1701.42 1254.03 1701.72 1252.09 1700.65 1251.98L1700.6 1252.01Z" fill="#434343"/>
<path d="M1689.32 1269.78C1661.21 1267.69 1633.85 1261.64 1607.62 1252.48C1581.39 1243.32 1556.29 1231.12 1532.27 1216.99C1507.84 1202.62 1484.5 1186.22 1461.92 1168.72C1439.39 1151.25 1417.6 1132.66 1396.16 1113.62C1374.44 1094.34 1353.06 1074.58 1331.55 1055.01C1308.81 1034.34 1285.99 1013.8 1263.09 993.354C1240.19 972.911 1217.48 952.776 1194.63 932.579C1171.77 912.382 1148.55 892.041 1125.47 871.823C1102.38 851.605 1081.31 832.815 1058.51 814.357C1035.71 795.899 1012.47 778.962 987.444 764.725C964.432 751.628 940.095 741.112 914.499 734.334C889.587 727.747 863.536 724.602 837.079 726.326C810.621 728.049 784.954 734.709 759.748 746C734.541 757.291 712.361 771.746 690.399 788.663C666.383 807.167 643.716 828.044 621.408 849.325C597.504 872.119 573.993 895.501 549.448 917.351C528.774 935.76 507.355 952.952 484.901 968.026C462.447 983.101 439.531 995.873 415.705 1005.89C391.879 1015.91 366.671 1023.17 341.792 1026.4C318.341 1029.45 295.119 1028.75 272.726 1024.08C250.333 1019.41 229.357 1011.16 210.144 999.252C190.932 987.344 174.333 972.459 160.783 953.757C147.233 935.055 137.217 912.189 132.166 887.352C127.115 862.514 126.905 834.425 129.875 807.262C132.858 779.918 138.717 752.69 145.214 725.677C151.434 699.796 158.474 674.031 163.857 648.013C168.897 623.671 172.566 599.077 173.931 574.625C175.296 550.174 174.412 526.317 169.83 503.469C165.249 480.622 157.009 459.831 144.426 442.563C128.977 421.351 107.723 406.932 83.8842 399.363C59.4484 391.595 32.8448 390.557 6.51199 394.447C-20.9437 398.498 -48.1044 407.829 -74.8679 418.149C-101.631 428.469 -127.424 439.151 -154.063 447.749C-178.852 455.735 -203.838 462.326 -228.882 467.793C-254.459 473.374 -280.104 477.797 -305.739 481.34C-332.013 484.967 -358.277 487.683 -384.497 489.76C-411.118 491.86 -437.711 493.3 -464.262 494.343C-491.174 495.397 -518.045 496.024 -544.903 496.471C-571.76 496.918 -599.002 497.197 -626.039 497.5C-653.102 497.807 -680.184 498.163 -707.279 498.786C-733.26 499.387 -759.264 500.221 -785.313 501.523C-786.392 501.574 -786.712 503.518 -785.623 503.47C-758.592 502.121 -731.606 501.269 -704.643 500.678C-677.68 500.088 -650.471 499.74 -623.393 499.425C-596.315 499.109 -569.328 498.843 -542.272 498.376C-515.216 497.908 -488.559 497.252 -461.652 496.181C-435.03 495.11 -408.372 493.625 -381.68 491.468C-355.639 489.362 -329.568 486.624 -303.483 482.964C-277.397 479.304 -252.245 474.896 -226.679 469.253C-201.656 463.721 -176.695 457.076 -151.923 449.012C-125.411 440.378 -99.3355 429.523 -73.0834 419.44C-46.1725 409.108 -18.8126 399.844 8.77835 396.076C35.4546 392.425 62.4497 393.906 86.9553 402.502C111.461 411.099 131.189 426.031 145.857 447.943C157.898 465.936 165.5 487.6 169.366 510.544C173.307 533.948 173.598 558.538 171.689 583.07C169.805 607.455 165.763 631.913 160.432 656.123C154.615 682.51 147.452 708.668 141.313 734.997C135.175 761.326 129.572 789.243 127.306 816.518C125.066 843.433 126.072 870.256 132.122 895.268C138.172 920.279 148.468 941.128 162.588 959.359C176.579 977.41 193.764 991.96 212.694 1003.13C231.624 1014.29 253.178 1022.34 275.231 1026.62C297.636 1030.96 320.828 1031.3 344.211 1028.03C368.925 1024.59 393.594 1017.32 417.575 1007.12C441.557 996.919 464.486 983.995 486.672 968.998C508.857 954.001 530.286 936.813 550.839 918.47C575.368 896.599 598.885 873.205 622.799 850.414C645.081 829.167 667.744 808.33 691.745 789.863C713.792 772.91 737.033 758.067 761.415 747.287C787.013 735.968 813.532 729.466 839.892 728.132C866.251 726.798 892.657 730.271 917.614 737.277C943.265 744.478 967.587 755.416 990.602 768.858C1015.62 783.48 1039.06 800.951 1061.68 819.511C1084.45 838.186 1106.53 857.881 1128.75 877.334C1151.81 897.543 1174.86 917.761 1197.85 938.069C1220.72 958.282 1243.56 978.545 1266.32 998.889C1289.08 1019.23 1312.04 1039.91 1334.77 1060.62C1356.1 1080.04 1377.31 1099.63 1398.9 1118.7C1420.4 1137.69 1442.26 1156.2 1464.91 1173.54C1487.41 1190.78 1510.69 1206.86 1535.06 1220.93C1559.42 1235 1584.35 1246.8 1610.67 1255.66C1635.88 1264.15 1662.11 1269.75 1689.01 1271.76C1690.09 1271.83 1690.4 1269.9 1689.33 1269.81L1689.32 1269.78Z" fill="#363636"/>
<path d="M1678.04 1287.53C1649.18 1286.09 1621.1 1280.23 1594.28 1270.86C1567.46 1261.49 1542.06 1248.79 1517.83 1233.91C1493.2 1218.77 1469.79 1201.44 1447.25 1182.88C1424.7 1164.33 1402.85 1144.38 1381.49 1124C1359.88 1103.38 1338.67 1082.23 1317.33 1061.26C1294.69 1039.02 1271.96 1016.87 1249.2 994.786C1226.52 972.789 1203.81 950.85 1181.06 928.967C1158.25 907.031 1135.41 885.14 1112.55 863.27C1089.69 841.4 1068.88 821.141 1046.12 801.314C1023.7 781.778 1000.23 763.623 974.975 748.618C951.957 734.946 927.428 724.11 901.542 717.316C876.151 710.649 849.508 707.852 822.506 710.456C796.098 713 769.723 721.09 744.557 733.841C720.242 746.163 697.299 762.598 675.668 780.992C651.481 801.572 628.764 824.516 606.416 847.753C582.886 872.214 559.707 897.188 535.278 920.457C514.926 939.838 493.663 957.88 471.31 973.824C448.81 989.866 425.239 1003.76 400.887 1014.55C376.439 1025.38 351.179 1032.97 325.884 1036.41C302.16 1039.64 278.626 1038.74 256.062 1033.75C233.497 1028.77 212.471 1020.03 193.383 1007.43C174.736 995.121 158.125 979.116 145.318 959.456C132.005 939.02 123.333 914.852 119.734 888.713C116.135 862.574 117.645 834.05 122.029 806.414C126.414 778.777 133.824 750.06 141.642 722.25C149.008 696.03 157.072 669.935 163.255 643.467C169.057 618.589 173.371 593.397 175.207 568.278C177.008 543.66 176.417 519.02 171.835 495.758C167.254 472.497 158.76 451.631 145.679 434.477C129.549 413.305 107.365 399.569 82.7635 392.978C58.162 386.387 29.9979 386.479 3.09576 391.868C-23.8064 397.258 -52.4189 408.362 -79.4919 420.215C-106.215 431.909 -132.743 444.354 -159.818 454.505C-185.211 464.02 -210.875 472.053 -236.653 478.84C-262.431 485.626 -288.801 491.287 -314.948 495.895C-341.095 500.502 -368.34 504.267 -395.019 507.187C-421.698 510.108 -449.381 512.338 -476.506 514.006C-503.63 515.675 -531.046 516.798 -558.271 517.626C-585.496 518.454 -613.223 518.993 -640.686 519.439C-668.149 519.885 -695.628 520.253 -723.116 520.76C-750.604 521.267 -775.715 521.862 -802.049 522.806C-803.132 522.841 -803.452 524.784 -802.359 524.754C-774.891 523.766 -747.45 523.14 -720.028 522.649C-692.606 522.158 -665.234 521.79 -637.842 521.344C-610.45 520.898 -582.932 520.345 -555.442 519.481C-527.953 518.617 -500.823 517.465 -473.455 515.752C-446.086 514.038 -419.684 511.863 -392.752 508.874C-365.819 505.884 -339.388 502.191 -312.718 497.437C-286.048 492.683 -260.314 487.094 -234.242 480.14C-208.643 473.325 -183.148 465.267 -157.917 455.744C-130.822 445.515 -104.27 433.008 -77.5057 421.33C-50.7413 409.653 -22.6061 398.642 5.54858 393.329C32.6266 388.211 60.2687 388.323 85.5824 395.859C110.079 403.151 131.83 417.813 147.222 439.873C159.674 457.732 167.476 479.548 171.278 502.738C175.08 525.928 175.137 551.568 172.795 576.469C170.453 601.369 165.699 626.77 159.56 651.597C152.923 678.397 144.644 704.877 137.328 731.531C129.708 759.235 122.804 787.228 118.98 815.448C115.156 843.668 114.579 870.881 119.274 897.162C123.778 922.351 133.079 945.371 146.612 964.824C159.973 984.021 176.981 999.601 195.924 1011.44C214.866 1023.29 236.302 1031.74 258.48 1036.3C280.658 1040.86 304.281 1041.45 327.795 1038.07C353.077 1034.42 378.29 1026.65 402.696 1015.73C427.102 1004.8 450.12 991.066 472.413 975.155C494.705 959.244 516.043 941.132 536.401 921.739C560.895 898.396 584.144 873.336 607.751 848.806C630.013 825.663 652.665 802.821 676.776 782.311C698.548 763.803 721.649 747.331 746.163 735.046C771.714 722.25 798.498 714.326 825.241 712.131C852.319 709.9 879.016 713.091 904.371 720.143C930.562 727.418 955.306 738.841 978.513 753.075C1003.63 768.494 1026.96 787.01 1049.33 806.767C1071.91 826.709 1093.6 847.863 1115.45 868.768C1138.43 890.762 1161.41 912.78 1184.34 934.864C1207.27 956.947 1229.67 978.575 1252.26 1000.51C1274.86 1022.45 1297.75 1044.77 1320.39 1067.02C1341.67 1087.96 1362.85 1109.05 1384.48 1129.55C1405.84 1149.8 1427.64 1169.51 1450.33 1187.94C1472.88 1206.26 1496.32 1223.32 1521 1238.13C1545.34 1252.75 1570.9 1265.18 1597.75 1274.15C1623.42 1282.72 1650.22 1288.1 1677.71 1289.47C1678.8 1289.52 1679.1 1287.58 1678.02 1287.52L1678.04 1287.53Z" fill="#282828"/>
<path d="M1666.77 1305.28C1637.42 1304.51 1608.84 1298.93 1581.64 1289.47C1554.43 1280.02 1528.52 1266.75 1504.08 1251.16C1479.2 1235.28 1455.7 1216.99 1433.2 1197.38C1410.53 1177.63 1388.84 1156.51 1367.62 1134.85C1345.99 1112.76 1324.84 1090.06 1303.55 1067.54C1281.07 1043.76 1258.53 1020.03 1235.97 996.356C1213.46 972.739 1190.93 949.142 1168.37 925.591C1145.75 901.99 1123.12 878.41 1100.48 854.842C1077.84 831.274 1057.57 809.876 1035.01 788.81C1012.56 767.851 988.889 748.412 963.141 732.524C940.072 718.303 915.316 707.118 889.094 700.331C863.433 693.684 836.418 691.223 809.134 694.643C782.363 697.998 755.742 707.404 730.647 721.541C706.321 735.246 683.627 753.125 662.342 772.873C638.103 795.347 615.533 820.167 593.276 845.213C570.169 871.216 547.367 897.615 523.172 922.279C502.873 942.968 481.43 962.196 458.854 979.25C436.278 996.305 412.282 1011.31 387.481 1022.93C362.68 1034.54 336.846 1042.76 310.979 1046.49C287.044 1049.95 263.204 1048.96 240.489 1043.73C217.775 1038.5 196.509 1029.32 177.47 1016.04C158.431 1002.76 142.521 986.104 130.406 965.407C118.29 944.711 110.261 918.272 108.011 891.204C105.76 864.137 108.82 834.394 114.596 806.047C120.546 776.854 129.229 748.107 138.29 719.569C146.726 692.995 155.779 666.54 162.74 639.586C169.33 614.054 174.328 588.108 176.623 562.203C178.843 537.224 178.552 512.162 173.993 488.523C169.433 464.885 160.708 443.883 147.175 426.818C130.399 405.657 107.378 392.584 82.0734 386.911C55.9683 381.043 27.9107 382.55 0.62087 389.284C-28.0853 396.347 -56.0938 408.752 -83.6187 422.139C-110.804 435.362 -137.737 449.402 -165.31 461.139C-191.216 472.162 -217.47 481.63 -243.88 489.748C-270.468 497.923 -297.218 504.732 -324.025 510.446C-351.182 516.233 -378.392 520.883 -405.602 524.648C-433.243 528.481 -460.888 531.412 -488.485 533.692C-516.081 535.971 -544.066 537.621 -571.801 538.829C-599.536 540.038 -627.571 540.839 -655.419 541.416C-683.201 542.004 -710.966 542.372 -738.73 542.768C-765.395 543.149 -792.06 543.531 -818.753 544.13C-819.831 544.153 -820.152 546.096 -819.063 546.078C-791.337 545.452 -763.634 545.06 -735.931 544.668C-708.228 544.276 -680.24 543.885 -652.372 543.288C-624.503 542.691 -596.662 541.869 -568.759 540.628C-540.857 539.387 -513.264 537.707 -485.465 535.367C-457.665 533.027 -430.58 530.099 -403.117 526.236C-375.918 522.41 -348.724 517.71 -321.577 511.862C-294.431 506.013 -268.048 499.2 -241.481 490.959C-215.239 482.816 -189.158 473.335 -163.42 462.316C-135.817 450.505 -108.855 436.391 -81.6332 423.197C-53.9813 409.79 -25.7944 397.414 3.06748 390.642C30.6197 384.171 58.9661 383.038 85.1253 389.685C110.182 396.06 132.699 410.03 148.655 431.96C161.62 449.783 169.67 471.87 173.425 495.442C177.18 519.013 176.901 545.103 174.11 570.381C171.318 595.658 165.853 622.115 158.922 647.552C151.427 675.063 141.994 702.107 133.478 729.35C124.963 756.593 116.367 786.333 111.097 815.371C105.966 843.592 103.776 872.3 107.129 899.726C110.482 927.152 118.636 950.511 131.729 971.23C144.822 991.949 161.114 1007.68 179.936 1020.12C199.152 1032.82 220.591 1041.56 243.082 1046.34C265.802 1051.18 289.521 1051.76 313.352 1048.09C339.048 1044.13 364.637 1035.79 389.31 1024.11C413.983 1012.43 437.65 997.53 460.195 980.463C482.74 963.396 504.183 944.14 524.461 923.442C548.6 898.798 571.368 872.458 594.43 846.507C616.667 821.482 639.242 796.679 663.475 774.217C684.902 754.354 707.743 736.405 732.253 722.746C756.762 709.087 784.408 699.438 811.38 696.349C839.074 693.181 866.482 696.114 892.372 703.311C918.808 710.656 943.719 722.432 966.886 737.265C992.374 753.591 1015.81 773.334 1038.11 794.465C1060.62 815.793 1082.05 838.501 1103.64 860.976C1125.23 883.451 1148.92 908.129 1171.54 931.729C1194.15 955.33 1216.62 978.873 1239.12 1002.5C1261.68 1026.19 1284.22 1049.92 1306.7 1073.71C1327.87 1096.11 1348.92 1118.67 1370.5 1140.58C1392.08 1162.5 1413.58 1183.17 1436.38 1202.76C1458.98 1222.17 1482.6 1240.21 1507.63 1255.77C1531.99 1270.9 1557.71 1283.69 1584.84 1292.71C1611.98 1301.74 1638.38 1306.53 1666.45 1307.27C1667.53 1307.29 1667.85 1305.36 1666.76 1305.32L1666.77 1305.28Z" fill="#1B1B1B"/>
<path d="M1655.49 1323.05C1625.46 1322.95 1596.18 1317.58 1568.43 1307.92C1540.69 1298.27 1514.55 1284.49 1489.95 1268.15C1464.81 1251.47 1441.24 1232.14 1418.77 1211.43C1395.98 1190.43 1374.32 1167.95 1353.18 1144.88C1332.04 1121.8 1310.67 1097.21 1289.55 1073.23C1267.17 1047.82 1244.77 1022.43 1222.35 997.067C1200.09 971.88 1177.82 946.713 1155.52 921.554C1133.11 896.264 1110.7 870.998 1088.27 845.716C1067.21 821.967 1046.22 798.107 1023.88 775.889C1001.55 753.675 977.798 733.103 951.716 716.423C928.595 701.652 903.55 690.151 876.998 683.387C850.446 676.624 822.921 674.63 794.977 679.156C767.937 683.532 741.24 694.365 716.369 709.922C691.497 725.479 669.398 744.742 648.342 766.012C624.175 790.431 601.808 817.105 579.692 843.923C557.093 871.318 534.737 899.083 510.753 924.933C490.347 946.922 468.652 967.42 445.686 985.619C422.877 1003.69 398.751 1019.5 373.601 1031.8C348.366 1044.13 322.094 1052.85 295.696 1056.78C271.603 1060.36 247.491 1059.16 224.713 1053.65C201.899 1048.13 180.255 1038.33 161.299 1024.2C142.87 1010.46 126.988 992.562 115.671 970.886C103.596 947.762 97.4996 920.744 96.7386 892.548C95.9533 863.499 100.677 833.812 107.831 804.848C114.985 775.884 125.376 745.109 135.721 715.717C145.231 688.689 155.205 661.777 162.877 634.209C170.127 608.129 175.673 581.561 178.323 554.983C180.858 529.517 180.719 503.873 175.946 479.82C171.174 455.766 162.055 435.063 147.951 418.325C130.229 397.298 106.017 385.146 79.8243 380.643C52.9641 376.029 24.367 378.962 -3.21812 387.135C-32.5482 395.834 -60.9733 409.744 -88.8792 424.635C-116.785 439.526 -143.543 454.751 -171.456 467.952C-197.927 480.463 -224.806 491.365 -251.91 500.819C-278.871 510.216 -306.072 518.201 -333.351 524.968C-361.016 531.837 -388.786 537.462 -416.556 542.087C-444.534 546.757 -472.518 550.409 -500.47 553.303C-528.756 556.232 -557 558.379 -585.21 559.968C-613.556 561.572 -641.868 562.62 -670.143 563.339C-698.417 564.058 -726.369 564.449 -754.455 564.73C-781.452 564.992 -808.445 565.156 -835.437 565.406C-836.521 565.412 -836.841 567.355 -835.747 567.353C-807.646 567.093 -779.559 566.928 -751.448 566.643C-723.276 566.354 -695.105 565.951 -666.887 565.195C-638.668 564.439 -610.454 563.367 -582.184 561.717C-553.914 560.067 -525.909 557.895 -497.73 554.936C-469.86 552.01 -441.963 548.308 -414.077 543.601C-386.318 538.915 -358.559 533.228 -330.905 526.298C-303.25 519.368 -276.457 511.418 -249.506 501.931C-222.571 492.453 -195.86 481.554 -169.567 469.072C-141.639 455.805 -114.421 440.265 -86.9045 425.631C-58.8564 410.712 -30.2584 396.786 -0.772712 388.379C27.0186 380.46 55.7724 377.905 82.665 383.175C108.788 388.293 132.685 401.462 149.623 423.46C163.161 441.042 171.613 463.191 175.458 487.013C179.437 511.619 178.847 537.597 175.699 563.317C172.434 589.946 166.435 616.517 158.767 642.572C150.54 670.546 140.143 697.916 130.547 725.481C120.389 754.677 110.706 784.165 103.905 814.2C97.3756 843.03 93.5858 872.522 95.3942 901.126C97.2027 929.731 104.218 954.646 116.772 976.82C129.326 998.994 144.986 1015.17 163.647 1028.33C182.309 1041.49 204.47 1051.16 227.264 1056.25C250.059 1061.34 274.045 1062.15 298.053 1058.34C324.281 1054.18 350.367 1045.3 375.42 1032.92C400.472 1020.53 424.354 1004.78 447.027 986.774C469.699 968.772 491.641 948.045 512.047 926.026C535.885 900.303 558.12 872.718 580.588 845.471C602.83 818.489 625.323 791.651 649.651 767.098C670.888 745.672 693.64 726 718.347 710.763C743.407 695.296 770.26 684.726 797.44 680.678C825.708 676.469 853.819 679.014 880.254 686.273C907.022 693.623 932.175 705.74 955.373 721.143C981.186 738.286 1004.68 759.181 1026.84 781.588C1049.11 804.089 1070.12 828.129 1091.27 851.957C1113.7 877.227 1136.11 902.504 1158.52 927.795C1180.93 953.085 1203.09 978.133 1225.35 1003.32C1247.77 1028.69 1270.17 1054.08 1292.55 1079.5C1313.62 1103.43 1334.57 1127.51 1356.12 1150.88C1377.26 1173.82 1398.99 1196.09 1421.84 1216.85C1444.48 1237.42 1468.27 1256.52 1493.64 1272.89C1518.18 1288.71 1544.23 1301.99 1571.84 1311.14C1598.49 1319.97 1626.5 1324.85 1655.18 1324.95C1656.26 1324.96 1656.58 1323.02 1655.49 1323.01L1655.49 1323.05Z" fill="#0D0D0D"/>
<path d="M1644.21 1340.8C1613.04 1341.38 1582.65 1336.08 1553.98 1325.91C1525.39 1315.77 1498.61 1301.02 1473.59 1283.53C1447.9 1265.54 1423.99 1244.68 1401.3 1222.35C1378.13 1199.52 1356.2 1175.13 1334.88 1150.1C1312.95 1124.38 1291.6 1098.03 1270.08 1071.87C1247.61 1044.53 1225.12 1017.2 1202.65 989.862C1180.05 962.381 1157.44 934.909 1134.85 907.428C1112.54 880.288 1090.23 853.123 1067.89 826.016C1046.91 800.556 1025.7 775.264 1002.69 752.147C980.187 729.535 955.89 708.9 928.936 692.998C904.43 678.54 877.715 667.995 849.54 663.165C821.803 658.425 792.55 659.45 763.943 668.183C739.525 675.633 716.053 688.281 694.272 704.427C672.071 720.875 651.698 740.691 632.6 761.822C612.934 783.567 594.529 806.75 576.422 830.138C558.315 853.527 540.209 877.559 521.488 900.672C501.803 924.968 481.098 948.138 458.764 969.222C436.429 990.305 412.32 1009.66 386.964 1025.53C361.957 1041.19 335.592 1053.59 308.595 1061.16C283.005 1068.33 257.228 1070.87 232.105 1067.9C207.934 1065.05 184.655 1057.42 163.82 1045.17C143.421 1033.17 125.313 1016.54 111.77 995.587C98.2268 974.629 89.2462 947.721 86.7051 919.607C83.9921 889.68 87.8667 858.593 94.9758 828.296C102.085 797.999 113.086 766.126 124.459 735.804C135.832 705.483 147.237 678.205 157.002 648.865C165.958 621.943 173.219 594.394 177.658 566.622C181.901 540.072 183.6 513.054 180.559 487.269C177.664 462.743 170.229 439.546 157.28 420.858C141.395 397.926 118.328 383.435 92.5159 377.342C65.1171 370.88 35.4692 373.09 6.85798 380.949C-23.3311 389.244 -52.6439 403.911 -81.0679 419.851C-109.492 435.791 -138.174 453.814 -167.213 469.363C-194.405 483.928 -222.123 496.793 -250.169 508.082C-278.215 519.372 -306.365 528.975 -334.763 537.249C-363.161 545.523 -391.752 552.419 -420.365 558.162C-448.979 563.905 -478.325 568.608 -507.311 572.3C-536.414 576.015 -565.506 578.792 -594.55 580.859C-623.635 582.938 -652.681 584.304 -681.686 585.214C-710.691 586.124 -739.966 586.554 -769.051 586.718C-798.135 586.882 -824.438 586.809 -852.111 586.713C-853.19 586.707 -853.51 588.65 -852.421 588.661C-823.507 588.771 -794.588 588.841 -765.631 588.64C-736.674 588.439 -707.725 587.992 -678.721 587.053C-649.716 586.114 -620.67 584.691 -591.591 582.567C-562.558 580.438 -533.481 577.613 -504.39 573.835C-475.298 570.058 -446.718 565.431 -417.923 559.59C-389.128 553.749 -360.751 546.824 -332.343 538.468C-303.951 530.12 -275.721 520.377 -247.803 509.08C-219.839 497.757 -192.212 484.855 -165.102 470.257C-136.125 454.655 -107.903 436.889 -79.0938 420.79C-50.2847 404.691 -20.8794 390.119 9.57264 382.144C38.553 374.548 68.6633 372.754 96.1241 380.269C121.457 387.198 143.668 402.603 158.546 426.143C170.894 445.675 177.451 469.576 179.578 494.535C181.816 520.983 179.389 548.422 174.483 575.377C169.458 603.041 161.779 630.421 152.444 657.161C142.077 686.874 129.953 715.992 119.096 745.535C108.239 775.078 97.7135 806.628 91.1251 838.05C84.8375 868.078 82.0938 898.806 85.9239 928.026C89.4944 955.326 98.801 980.336 113.243 1001.1C127.38 1021.44 145.837 1037.4 166.455 1048.89C187.462 1060.59 210.802 1067.72 234.953 1070.15C259.949 1072.67 285.569 1069.75 310.919 1062.41C337.75 1054.63 363.931 1042.16 388.76 1026.47C414.064 1010.49 438.011 991.243 460.461 969.963C482.523 949.056 503.006 926.111 522.485 902.089C541.211 878.993 559.181 855.149 577.424 831.572C595.727 807.933 614.302 784.504 634.195 762.551C653.208 741.572 673.497 721.908 695.587 705.586C717.677 689.264 741.627 676.551 766.418 669.353C795.41 660.932 824.908 660.421 852.849 665.714C881.055 671.057 907.761 682.185 932.151 697.168C959.004 713.673 983.2 734.824 1005.64 757.842C1028.65 781.431 1049.91 807.1 1071.07 832.815C1093.56 860.156 1116.04 887.505 1138.53 914.843C1161.01 942.18 1183.49 969.513 1205.96 996.846C1228.44 1024.18 1250.92 1051.52 1273.4 1078.85C1295.87 1106.18 1316.25 1131.32 1338.24 1156.92C1360.24 1182.52 1381.21 1205.55 1404.28 1227.93C1427.35 1250.3 1451.13 1270.61 1476.99 1288.21C1502.85 1305.82 1529.09 1319.67 1557.8 1329.3C1586.52 1338.92 1614.25 1343.26 1643.92 1342.71C1645 1342.69 1645.32 1340.74 1644.23 1340.76L1644.21 1340.8Z" fill="black"/>
</g>
<defs>
<clipPath id="clip0_19_3321">
<rect width="2671.31" height="681.417" fill="white" transform="translate(-616.132) rotate(21.9642)"/>
</clipPath>
</defs>
</svg>
