<svg width="21" height="21" viewBox="0 0 21 21" fill="none" xmlns="http://www.w3.org/2000/svg">
<path d="M10.35 2.13324C13.04 2.13324 13.36 2.14324 14.42 2.19324C15.4 2.23324 15.93 2.40324 16.29 2.54324C16.76 2.72324 17.09 2.94324 17.45 3.29324C17.8 3.64324 18.02 3.98324 18.2 4.45324C18.34 4.80324 18.5 5.34324 18.55 6.32324C18.6 7.38324 18.61 7.70324 18.61 10.3932C18.61 13.0832 18.6 13.4032 18.55 14.4632C18.51 15.4432 18.34 15.9732 18.2 16.3332C18.02 16.8032 17.8 17.1332 17.45 17.4932C17.1 17.8432 16.76 18.0632 16.29 18.2432C15.94 18.3832 15.4 18.5432 14.42 18.5932C13.36 18.6432 13.04 18.6532 10.35 18.6532C7.66004 18.6532 7.34004 18.6432 6.28004 18.5932C5.30004 18.5532 4.77004 18.3832 4.41004 18.2432C3.94004 18.0632 3.61004 17.8432 3.25004 17.4932C2.90004 17.1432 2.68004 16.8032 2.50004 16.3332C2.36004 15.9832 2.20004 15.4432 2.15004 14.4632C2.10004 13.4032 2.09004 13.0832 2.09004 10.3932C2.09004 7.70324 2.10004 7.38324 2.15004 6.32324C2.19004 5.34324 2.36004 4.81324 2.50004 4.45324C2.68004 3.98324 2.90004 3.65324 3.25004 3.29324C3.60004 2.94324 3.94004 2.72324 4.41004 2.54324C4.76004 2.40324 5.30004 2.24324 6.28004 2.19324C7.34004 2.14324 7.66004 2.13324 10.35 2.13324ZM10.35 0.323242C7.62004 0.323242 7.27004 0.333242 6.20004 0.383242C5.13004 0.433242 4.40004 0.603242 3.76004 0.853242C3.10004 1.11324 2.54004 1.45324 1.98004 2.01324C1.42004 2.57324 1.08004 3.13324 0.82004 3.79324C0.57004 4.43324 0.40004 5.16324 0.35004 6.23324C0.30004 7.30324 0.290039 7.65324 0.290039 10.3832C0.290039 13.1132 0.30004 13.4632 0.35004 14.5332C0.40004 15.6032 0.57004 16.3332 0.82004 16.9732C1.08004 17.6332 1.42004 18.1932 1.98004 18.7532C2.54004 19.3132 3.10004 19.6532 3.76004 19.9132C4.40004 20.1632 5.13004 20.3332 6.20004 20.3832C7.27004 20.4332 7.62004 20.4432 10.35 20.4432C13.08 20.4432 13.43 20.4332 14.5 20.3832C15.57 20.3332 16.3 20.1632 16.94 19.9132C17.6 19.6532 18.16 19.3132 18.72 18.7532C19.28 18.1932 19.62 17.6332 19.88 16.9732C20.13 16.3332 20.3 15.6032 20.35 14.5332C20.4 13.4632 20.41 13.1132 20.41 10.3832C20.41 7.65324 20.4 7.30324 20.35 6.23324C20.3 5.16324 20.13 4.43324 19.88 3.79324C19.62 3.13324 19.28 2.57324 18.72 2.01324C18.16 1.45324 17.6 1.11324 16.94 0.853242C16.3 0.603242 15.57 0.433242 14.5 0.383242C13.43 0.333242 13.08 0.323242 10.35 0.323242Z" fill="white"/>
<path d="M10.3502 5.22314C7.50018 5.22314 5.18018 7.53315 5.18018 10.3931C5.18018 13.2531 7.49018 15.5631 10.3502 15.5631C13.2102 15.5631 15.5202 13.2531 15.5202 10.3931C15.5202 7.53315 13.2102 5.22314 10.3502 5.22314ZM10.3502 13.7431C8.50018 13.7431 7.00018 12.2431 7.00018 10.3931C7.00018 8.54315 8.50018 7.04314 10.3502 7.04314C12.2002 7.04314 13.7002 8.54315 13.7002 10.3931C13.7002 12.2431 12.2002 13.7431 10.3502 13.7431Z" fill="white"/>
<path d="M15.7203 6.22322C16.3885 6.22322 16.9303 5.68149 16.9303 5.01322C16.9303 4.34496 16.3885 3.80322 15.7203 3.80322C15.052 3.80322 14.5103 4.34496 14.5103 5.01322C14.5103 5.68149 15.052 6.22322 15.7203 6.22322Z" fill="white"/>
</svg>
