<svg width="18" height="22" viewBox="0 0 18 22" fill="none" xmlns="http://www.w3.org/2000/svg">
<path d="M3.85082 20.8352C3.85082 20.8352 3.68082 18.1752 3.96082 17.0452C4.22082 16.0152 5.62082 10.5052 5.62082 10.5052C5.62082 10.5052 5.24082 9.70518 5.26082 8.54518C5.29082 6.70518 6.38082 5.35518 7.71082 5.38518C8.84082 5.40518 9.37082 6.26518 9.35082 7.27518C9.31082 9.58518 8.30082 11.1852 8.18082 11.6552C7.84082 12.9652 8.80082 14.0552 10.0908 14.0852C12.4408 14.1252 14.2908 11.6752 14.3508 8.11518C14.4108 4.95518 12.1708 2.70518 8.92082 2.64518C5.16082 2.57518 2.90082 5.35518 2.85082 8.26518C2.83082 9.39518 3.24082 10.6252 3.78082 11.2952C3.89082 11.4252 3.90082 11.5452 3.86082 11.6752C3.75082 12.0852 3.51082 12.9852 3.46082 13.1652C3.40082 13.4052 3.26082 13.4552 3.01082 13.3352C1.37082 12.5352 0.380819 10.1152 0.410819 8.16518C0.490819 4.00518 3.58082 0.225183 9.28082 0.325183C13.8608 0.405183 17.3608 3.72518 17.2908 8.09518C17.2108 12.6452 14.2808 16.2652 10.3008 16.1952C8.96082 16.1752 7.71082 15.4552 7.31082 14.6252C7.31082 14.6252 6.60082 17.1352 6.43082 17.7552C6.12082 18.9052 4.73082 21.1952 4.73082 21.1952C4.73082 21.1952 4.05082 22.0752 3.86082 20.8452L3.85082 20.8352Z" fill="white"/>
</svg>
