<svg width="198" height="67" viewBox="0 0 198 67" fill="none" xmlns="http://www.w3.org/2000/svg">
<path d="M90.2587 0.5H85.6528V65.9647H90.2587V0.5Z" fill="white"/>
<path d="M20.3499 26.5303C19.2914 25.4637 18.0231 24.5989 16.5737 23.9744C15.1242 23.3498 13.5507 23.0327 11.9105 23.0327C10.1464 23.0327 8.47755 23.3978 6.93271 24.1185C6.10307 24.5029 5.32112 24.9833 4.60591 25.5502V23.4555H0V65.9648H4.60591V35.0341C4.60591 34.0156 4.79663 33.0547 5.17808 32.1611C5.55952 31.2674 6.084 30.4795 6.73245 29.8261C7.37137 29.1727 8.15332 28.6442 9.04971 28.2599C10.8043 27.4912 12.9881 27.4912 14.7427 28.2599C15.6391 28.6539 16.4211 29.1823 17.06 29.8357C17.7084 30.4795 18.2234 31.2674 18.6144 32.1707C18.9958 33.0547 19.1865 34.0252 19.1865 35.0437V65.9744H23.7924V35.0437C23.7924 33.3814 23.4778 31.8055 22.8579 30.345C22.2381 28.8941 21.3894 27.6161 20.3309 26.5495" fill="white"/>
<path d="M47.7564 35.0342V54.3767C47.7564 55.3952 47.5657 56.3561 47.1842 57.2497C46.7933 58.1626 46.2878 58.9216 45.6298 59.5847C44.9814 60.238 44.1994 60.7665 43.3031 61.1509C42.4257 61.5352 41.4626 61.737 40.4518 61.737C39.441 61.737 38.4969 61.5448 37.6005 61.1509C36.7136 60.7665 35.9317 60.238 35.2832 59.5847C34.6252 58.9216 34.1198 58.1625 33.7289 57.2401C33.3474 56.3561 33.1567 55.3856 33.1567 54.3671V35.0246C33.1567 34.0061 33.3474 33.0452 33.7289 32.1516C34.1198 31.2483 34.6443 30.4604 35.2832 29.8166C35.9317 29.1632 36.7136 28.6348 37.6005 28.2504C38.4969 27.8564 39.4314 27.6739 40.4518 27.6739C41.4721 27.6739 42.4162 27.8661 43.3031 28.2504C44.1899 28.6348 44.9719 29.1632 45.6203 29.8166C46.2688 30.4604 46.7837 31.2483 47.1747 32.1516C47.5561 33.0452 47.7469 34.0061 47.7469 35.0246M48.8912 26.5304C47.8327 25.4639 46.5644 24.6087 45.1244 23.9841C42.2159 22.7254 38.7067 22.7254 35.7886 23.9841C34.3487 24.6087 33.0804 25.4639 32.0219 26.5304C30.9634 27.597 30.1052 28.875 29.4853 30.3355C28.8655 31.796 28.5508 33.3815 28.5508 35.0342V54.3767C28.5508 56.0294 28.8655 57.6148 29.4853 59.085C30.0956 60.5263 30.9539 61.8043 32.0219 62.8901C33.0899 63.9663 34.3582 64.8214 35.7886 65.4364C37.2381 66.061 38.802 66.3781 40.4518 66.3781C42.1015 66.3781 43.675 66.061 45.1149 65.4364C46.5453 64.8214 47.8136 63.9663 48.8912 62.8901C49.9592 61.8139 50.8079 60.5359 51.4182 59.085C52.0381 57.6245 52.3528 56.0486 52.3528 54.3767V35.0342C52.3528 33.3719 52.0381 31.796 51.4182 30.3355C50.7984 28.875 49.9497 27.597 48.8816 26.5304" fill="white"/>
<path d="M76.2979 35.034V54.3765C76.2979 55.395 76.1072 56.3559 75.7257 57.2495C75.3348 58.1623 74.8198 58.9214 74.1713 59.5844C73.5229 60.2378 72.7409 60.7663 71.8446 61.1507C70.0804 61.9194 67.9062 61.9194 66.1515 61.1507C65.2551 60.7567 64.4827 60.2378 63.8343 59.5844C63.1763 58.9214 62.6709 58.1527 62.2799 57.2399C61.8984 56.3463 61.7077 55.3854 61.7077 54.3669V35.0244C61.7077 34.0154 61.8984 33.045 62.2799 32.1513C62.6709 31.2481 63.1954 30.4602 63.8343 29.8164C64.4827 29.163 65.2647 28.6345 66.1515 28.2502C67.0289 27.8658 67.992 27.6736 69.0028 27.6736C70.0136 27.6736 70.9672 27.8658 71.8541 28.2502C72.7505 28.6441 73.5229 29.163 74.1713 29.8164C74.8103 30.4602 75.3348 31.2481 75.7257 32.1513C76.1072 33.045 76.2979 34.0058 76.2979 35.0244M77.4422 26.5302C76.3837 25.4636 75.1154 24.5988 73.6659 23.9743C72.2165 23.3497 70.643 23.0326 69.0028 23.0326C67.2386 23.0326 65.5603 23.3977 64.025 24.1184C63.1954 24.5027 62.4134 24.9832 61.6982 25.5501V0.5H57.0923V65.9647H61.6982V63.8219C62.4134 64.3792 63.1858 64.8596 64.0059 65.2536C65.5412 66.0031 67.2196 66.3778 68.9933 66.3778C70.643 66.3778 72.2165 66.0607 73.6564 65.4362C75.0868 64.8212 76.3551 63.966 77.4327 62.8898C78.4912 61.8137 79.3399 60.5357 79.9597 59.0848C80.5796 57.6242 80.8943 56.0388 80.8943 54.3765V35.034C80.8943 33.3813 80.5796 31.7958 79.9597 30.3353C79.3399 28.8747 78.4816 27.5968 77.4327 26.5398" fill="white"/>
<path d="M141.687 26.5303C140.628 25.4637 139.36 24.5989 137.911 23.9744C136.461 23.3498 134.888 23.0327 133.247 23.0327C131.607 23.0327 130.034 23.3498 128.584 23.9744C127.144 24.5989 125.876 25.4541 124.808 26.5303C123.75 27.5969 122.901 28.8749 122.281 30.3258C121.661 31.7863 121.346 33.3718 121.346 35.0245C121.346 36.6772 121.709 38.0416 122.414 39.262C123.092 40.4246 123.969 41.472 125.027 42.3848C126.057 43.2784 127.221 44.0952 128.489 44.8062C129.681 45.4788 130.949 46.1322 132.227 46.7568C133.362 47.3622 134.468 47.9387 135.527 48.5152C136.537 49.0629 137.434 49.6587 138.206 50.2736C138.94 50.8694 139.522 51.5228 139.951 52.2242C140.352 52.868 140.543 53.5694 140.543 54.3862C140.543 55.3951 140.352 56.3656 139.961 57.2592C139.57 58.1624 139.055 58.9503 138.406 59.5941C137.758 60.2475 136.986 60.776 136.099 61.1604C135.193 61.5543 134.258 61.7465 133.247 61.7465C132.237 61.7465 131.293 61.5543 130.396 61.1604C129.519 60.776 128.737 60.2475 128.079 59.5941C127.43 58.9503 126.915 58.1624 126.525 57.2592C126.143 56.3752 125.943 55.4143 125.943 54.3958V53.4349H121.337V54.3958C121.337 56.0581 121.652 57.6339 122.271 59.0945C122.891 60.5454 123.74 61.8234 124.798 62.8996C125.867 63.9757 127.135 64.8309 128.565 65.4459C130.015 66.0705 131.579 66.3876 133.228 66.3876C134.878 66.3876 136.452 66.0705 137.891 65.4459C139.331 64.8309 140.6 63.9757 141.668 62.8996C142.726 61.8234 143.575 60.5454 144.195 59.0945C144.815 57.6339 145.129 56.0581 145.129 54.3958C145.129 52.7335 144.767 51.3882 144.061 50.1679C143.384 49.0053 142.507 47.9483 141.458 47.0162C140.438 46.0938 139.265 45.2674 137.977 44.5468C136.795 43.8838 135.565 43.2304 134.287 42.5866C133.219 42.0773 132.151 41.5296 131.026 40.9243C130.024 40.3766 129.099 39.7808 128.298 39.1563C127.554 38.5797 126.954 37.9263 126.525 37.2249C126.124 36.5811 125.933 35.87 125.933 35.0533C125.933 34.0348 126.124 33.0739 126.515 32.1803C126.906 31.2771 127.411 30.5083 128.06 29.8453C128.708 29.1919 129.49 28.6635 130.377 28.2791C131.273 27.8852 132.208 27.7026 133.228 27.7026C134.249 27.7026 135.183 27.8948 136.08 28.2791C136.976 28.6731 137.748 29.2016 138.397 29.8453C139.055 30.5083 139.56 31.2771 139.951 32.1899C140.333 33.0835 140.533 34.0444 140.533 35.0629V36.0238H145.139V35.0629C145.139 33.4006 144.824 31.8247 144.204 30.3642C143.585 28.9133 142.736 27.6353 141.677 26.5687" fill="white"/>
<path d="M168.082 26.5399C167.033 25.4733 165.756 24.6085 164.306 23.9839C161.398 22.7252 157.869 22.7348 154.97 23.9839C153.521 24.6085 152.253 25.4733 151.204 26.5303C150.145 27.5968 149.287 28.8748 148.667 30.3353C148.047 31.7959 147.732 33.3813 147.732 35.034C147.732 36.6867 148.095 38.0608 148.8 39.2715C149.478 40.4342 150.355 41.4815 151.413 42.3944C152.443 43.288 153.616 44.1047 154.884 44.8158C156.076 45.4788 157.345 46.1418 158.623 46.7663C159.757 47.3717 160.864 47.9482 161.922 48.5248C162.933 49.0725 163.839 49.6682 164.602 50.2832C165.336 50.8789 165.918 51.5323 166.347 52.2241C166.747 52.8679 166.938 53.579 166.938 54.3861C166.938 55.4046 166.747 56.3655 166.366 57.2591C165.965 58.1816 165.46 58.9503 164.802 59.5941C164.154 60.2475 163.372 60.776 162.485 61.1603C161.588 61.5543 160.654 61.7464 159.633 61.7464C158.613 61.7464 157.659 61.5543 156.782 61.1603C155.905 60.776 155.123 60.2475 154.465 59.5941C153.826 58.9503 153.301 58.1624 152.911 57.2591C152.529 56.3655 152.338 55.4046 152.338 54.3861V53.4252H147.732V54.3861C147.732 56.0388 148.047 57.6243 148.667 59.0944C149.287 60.5453 150.136 61.8233 151.204 62.8995C152.262 63.9661 153.54 64.8309 154.97 65.4458C156.42 66.0704 157.993 66.3875 159.643 66.3875C161.293 66.3875 162.857 66.0704 164.306 65.4458C165.746 64.8309 167.014 63.9661 168.082 62.8995C169.15 61.8233 169.999 60.5357 170.609 59.0944C171.229 57.6339 171.544 56.058 171.544 54.3861C171.544 52.7142 171.182 51.3786 170.466 50.1583C169.799 49.0052 168.922 47.9482 167.873 47.0066C166.852 46.0841 165.679 45.2578 164.392 44.5371C163.248 43.8933 162.046 43.2591 160.701 42.5769C159.643 42.0677 158.537 41.5103 157.431 40.9146C156.439 40.3765 155.523 39.7808 154.703 39.1466C153.959 38.5701 153.359 37.9167 152.93 37.2152C152.529 36.5714 152.338 35.87 152.338 35.0532C152.338 34.0347 152.529 33.0738 152.911 32.1802C153.301 31.2674 153.807 30.5083 154.465 29.8453C155.123 29.1919 155.905 28.6634 156.792 28.279C157.669 27.8947 158.623 27.7025 159.643 27.7025C160.663 27.7025 161.588 27.8947 162.485 28.279C163.372 28.673 164.154 29.2015 164.802 29.8453C165.45 30.5083 165.965 31.2674 166.356 32.1802C166.738 33.0738 166.928 34.0347 166.928 35.0532V36.0141H171.534V35.0532C171.534 33.3909 171.22 31.8055 170.6 30.3545C169.99 28.9036 169.131 27.6257 168.073 26.5591" fill="white"/>
<path d="M99.5944 50.5327V35.0338C99.5944 34.0152 99.7851 33.0543 100.176 32.1607C100.558 31.2575 101.082 30.4792 101.73 29.8258C102.379 29.1724 103.151 28.6535 104.048 28.2596C104.925 27.8752 105.888 27.683 106.889 27.683C107.891 27.683 108.854 27.8752 109.741 28.2596C110.637 28.6535 111.419 29.182 112.058 29.8258C112.706 30.4792 113.231 31.2575 113.622 32.1319C113.975 32.9294 114.175 33.8615 114.194 34.6974C113.984 40.0207 106.499 46.3529 99.604 50.5327M114.194 54.3858C114.194 55.4044 114.003 56.3653 113.622 57.2493C113.241 58.1429 112.716 58.9308 112.068 59.5842C111.419 60.2376 110.637 60.7661 109.741 61.1504C107.996 61.9191 105.812 61.9287 104.048 61.1504C103.161 60.7661 102.379 60.2376 101.73 59.5842C101.082 58.9308 100.558 58.1429 100.176 57.2397C99.9854 56.7977 99.8424 56.3364 99.747 55.8368C116.912 46.4106 118.667 37.5128 118.79 34.9185V34.4188C118.714 32.9775 118.409 31.6034 117.866 30.3351C117.246 28.8745 116.397 27.5966 115.338 26.5396C114.28 25.473 113.012 24.6082 111.572 23.9837C110.122 23.3591 108.558 23.042 106.899 23.042C105.24 23.042 103.676 23.3591 102.236 23.9837C100.796 24.6082 99.5181 25.4634 98.4692 26.53C97.4107 27.5966 96.5524 28.8745 95.9326 30.3351C95.3127 31.786 94.998 33.3714 94.998 35.0338V54.3858C94.998 56.0482 95.3127 57.6336 95.9326 59.0845C96.5524 60.5355 97.4011 61.8231 98.4692 62.88C99.5277 63.9466 100.796 64.8114 102.236 65.4263C103.676 66.0509 105.249 66.368 106.899 66.368C108.549 66.368 110.122 66.0509 111.562 65.4263C113.002 64.8114 114.27 63.9466 115.329 62.88C116.397 61.8134 117.246 60.5355 117.856 59.0749C118.476 57.6144 118.79 56.0386 118.79 54.3762V53.4154H114.185V54.3762L114.194 54.3858Z" fill="white"/>
<path d="M193.334 38.8869V54.3858C193.334 55.4044 193.143 56.3749 192.762 57.2589C192.38 58.1525 191.856 58.9404 191.207 59.5938C190.559 60.2376 189.786 60.7661 188.89 61.16C188.003 61.5444 187.04 61.7366 186.039 61.7366C185.037 61.7366 184.084 61.5444 183.187 61.16C182.291 60.7661 181.509 60.2376 180.87 59.5842C180.222 58.9404 179.697 58.1621 179.306 57.2877C178.953 56.4806 178.753 55.5581 178.734 54.7222C178.944 49.3893 186.43 43.0571 193.324 38.8869M197.005 30.3351C196.385 28.8745 195.537 27.5966 194.478 26.53C193.41 25.4538 192.142 24.5986 190.711 23.9837C189.271 23.3591 187.698 23.042 186.039 23.042C184.379 23.042 182.825 23.3591 181.376 23.9837C179.936 24.6082 178.667 25.4634 177.599 26.5396C176.541 27.6062 175.692 28.8841 175.072 30.3351C174.452 31.7956 174.138 33.3714 174.138 35.0338V35.9946H178.744V35.0338C178.744 34.0344 178.934 33.064 179.316 32.1607C179.707 31.2479 180.222 30.4792 180.88 29.8258C181.528 29.1724 182.301 28.6439 183.197 28.2596C184.093 27.8656 185.028 27.683 186.048 27.683C187.069 27.683 188.013 27.8752 188.899 28.2596C189.786 28.6439 190.568 29.1724 191.217 29.8258C191.865 30.4888 192.39 31.2671 192.771 32.1607C192.962 32.6123 193.105 33.0832 193.21 33.5732C189.004 35.9082 174.662 44.5753 174.166 54.4915L174.185 54.9912C174.243 56.4229 174.548 57.797 175.091 59.0942C175.711 60.5451 176.56 61.823 177.618 62.8896C178.686 63.9658 179.955 64.821 181.395 65.436C182.844 66.0605 184.408 66.3872 186.058 66.3872C187.707 66.3872 189.281 66.0701 190.721 65.4456C191.674 65.042 192.552 64.5231 193.353 63.9082V65.9837H197.959V35.053C197.959 33.4003 197.644 31.8244 197.024 30.3543" fill="white"/>
</svg>
