<svg width="15" height="19" viewBox="0 0 15 19" fill="none" xmlns="http://www.w3.org/2000/svg">
<path d="M7.065 3.94326C6.44758 3.94326 5.84402 4.12634 5.33065 4.46936C4.81728 4.81239 4.41716 5.29994 4.18088 5.87036C3.94461 6.44078 3.88279 7.06846 4.00324 7.67402C4.12369 8.27958 4.42101 8.83582 4.85759 9.27241C5.29418 9.70899 5.85042 10.0063 6.45598 10.1268C7.06154 10.2472 7.68922 10.1854 8.25964 9.94911C8.83006 9.71284 9.31761 9.31272 9.66064 8.79935C10.0037 8.28598 10.1867 7.68242 10.1867 7.065C10.1867 6.23706 9.85785 5.44303 9.27241 4.85759C8.68697 4.27215 7.89294 3.94326 7.065 3.94326ZM7.065 9.20093C6.64255 9.20093 6.22959 9.07566 5.87834 8.84096C5.52709 8.60626 5.25332 8.27267 5.09166 7.88238C4.92999 7.49209 4.8877 7.06263 4.97011 6.6483C5.05253 6.23397 5.25595 5.85338 5.55467 5.55467C5.85338 5.25595 6.23397 5.05253 6.6483 4.97011C7.06263 4.8877 7.49209 4.92999 7.88239 5.09166C8.27268 5.25332 8.60626 5.52709 8.84096 5.87834C9.07566 6.22959 9.20093 6.64255 9.20093 7.065C9.20093 7.63148 8.9759 8.17477 8.57533 8.57533C8.17477 8.97589 7.63148 9.20093 7.065 9.20093ZM7.065 0C5.19191 0.00217422 3.39617 0.747218 2.07169 2.07169C0.747219 3.39617 0.00217422 5.19191 0 7.065C0 9.60429 1.17805 12.3013 3.40681 14.8644C4.41275 16.027 5.54491 17.074 6.7824 17.9862C6.86524 18.0441 6.9639 18.0752 7.065 18.0752C7.1661 18.0752 7.26476 18.0441 7.3476 17.9862C8.58509 17.074 9.71725 16.027 10.7232 14.8644C12.952 12.3013 14.13 9.60676 14.13 7.065C14.1278 5.19191 13.3828 3.39617 12.0583 2.07169C10.7338 0.747218 8.93809 0.00217422 7.065 0ZM7.065 16.965C5.83273 16.0137 0.985814 11.9629 0.985814 7.065C0.985814 5.4527 1.6263 3.90643 2.76637 2.76637C3.90643 1.6263 5.4527 0.985814 7.065 0.985814C8.6773 0.985814 10.2236 1.6263 11.3636 2.76637C12.5037 3.90643 13.1442 5.4527 13.1442 7.065C13.1442 11.9629 8.29727 16.0137 7.065 16.965Z" fill="white"/>
</svg>
