<svg width="128" height="64" viewBox="0 0 128 64" fill="none" xmlns="http://www.w3.org/2000/svg">
<g clip-path="url(#clip0_72_1596)">
<path d="M71.5022 49.7345H72.5135V63.7992H73.9146V48.3043H71.5022V49.7345Z" fill="white"/>
<path d="M89.4312 49.7345H90.4424V63.7992H91.8497V48.3043H89.4312V49.7345Z" fill="white"/>
<path d="M58.1548 0H55.2124V41.4637H58.1548V0Z" fill="white"/>
<path d="M91.0089 16.493C90.3327 15.8174 89.5224 15.2697 88.5964 14.8741C87.6705 14.4785 86.6653 14.2777 85.6175 14.2777C84.5696 14.2777 83.5645 14.4785 82.6385 14.8741C81.7186 15.2697 80.9083 15.8113 80.226 16.493C79.5498 17.1685 79.0076 17.9779 78.6117 18.8969C78.2157 19.822 78.0146 20.8262 78.0146 21.873C78.0146 22.9197 78.2461 23.7839 78.6969 24.5569C79.1295 25.2933 79.6899 25.9566 80.3662 26.5348C81.0241 27.1008 81.7673 27.6181 82.5775 28.0685C83.339 28.4945 84.1493 28.9083 84.9656 29.3039C85.6906 29.6873 86.3972 30.0525 87.0734 30.4176C87.7192 30.7645 88.2918 31.1419 88.7853 31.5314C89.2544 31.9087 89.626 32.3226 89.9001 32.7668C90.156 33.1746 90.2778 33.6189 90.2778 34.1362C90.2778 34.7752 90.156 35.3899 89.9062 35.9559C89.6565 36.528 89.3275 37.027 88.9132 37.4348C88.499 37.8486 88.0055 38.1833 87.439 38.4268C86.8602 38.6763 86.2632 38.798 85.6175 38.798C84.9717 38.798 84.3686 38.6763 83.7959 38.4268C83.2355 38.1833 82.7359 37.8486 82.3156 37.4348C81.9013 37.027 81.5724 36.528 81.3226 35.9559C81.0789 35.396 80.951 34.7874 80.951 34.1423V33.5337H78.0085V34.1423C78.0085 35.1951 78.2096 36.1932 78.6056 37.1183C79.0015 38.0373 79.5437 38.8467 80.2199 39.5283C80.9022 40.21 81.7125 40.7516 82.6263 41.1411C83.5523 41.5367 84.5514 41.7375 85.6053 41.7375C86.6592 41.7375 87.6644 41.5367 88.5843 41.1411C89.5042 40.7516 90.3144 40.21 90.9967 39.5283C91.6729 38.8467 92.2151 38.0373 92.6111 37.1183C93.0071 36.1932 93.2081 35.1951 93.2081 34.1423C93.2081 33.0894 92.9766 32.2374 92.5258 31.4644C92.0933 30.728 91.5328 30.0586 90.8627 29.4682C90.2108 28.884 89.4615 28.3606 88.6391 27.9041C87.8837 27.4842 87.0978 27.0704 86.2815 26.6626C85.5992 26.3401 84.9169 25.9932 84.198 25.6097C83.5584 25.2628 82.9674 24.8855 82.4557 24.4899C81.9805 24.1248 81.5967 23.7109 81.3226 23.2666C81.0667 22.8589 80.9449 22.4085 80.9449 21.8912C80.9449 21.2461 81.0667 20.6375 81.3165 20.0715C81.5663 19.4994 81.8891 19.0126 82.3034 18.5926C82.7177 18.1788 83.2172 17.844 83.7838 17.6006C84.3564 17.3511 84.9534 17.2355 85.6053 17.2355C86.2571 17.2355 86.8541 17.3572 87.4268 17.6006C87.9994 17.8501 88.4929 18.1849 88.9071 18.5926C89.3275 19.0126 89.6504 19.4994 89.9001 20.0776C90.1438 20.6436 90.2717 21.2522 90.2717 21.8973V22.5059H93.2142V21.8973C93.2142 20.8444 93.0132 19.8463 92.6172 18.9213C92.2212 18.0023 91.679 17.1928 91.0028 16.5173" fill="white"/>
<path d="M107.871 16.493C107.201 15.8174 106.385 15.2697 105.459 14.8741C103.601 14.0768 101.347 14.0829 99.4949 14.8741C98.5689 15.2697 97.7587 15.8174 97.0886 16.4869C96.4124 17.1624 95.8641 17.9719 95.4681 18.8969C95.0721 19.822 94.8711 20.8262 94.8711 21.873C94.8711 22.9197 95.1026 23.79 95.5534 24.5569C95.9859 25.2933 96.5464 25.9566 97.2226 26.5348C97.8805 27.1008 98.6299 27.6181 99.4401 28.0685C100.202 28.4884 101.012 28.9083 101.828 29.3039C102.553 29.6873 103.26 30.0525 103.936 30.4177C104.582 30.7645 105.16 31.1419 105.648 31.5314C106.117 31.9087 106.489 32.3226 106.763 32.7607C107.019 33.1685 107.14 33.6189 107.14 34.1301C107.14 34.7752 107.019 35.3838 106.775 35.9498C106.519 36.534 106.196 37.0209 105.776 37.4287C105.362 37.8425 104.862 38.1773 104.295 38.4207C103.723 38.6702 103.126 38.7919 102.474 38.7919C101.822 38.7919 101.213 38.6702 100.652 38.4207C100.092 38.1773 99.5924 37.8425 99.172 37.4287C98.7639 37.0209 98.4288 36.5219 98.179 35.9498C97.9354 35.3838 97.8135 34.7752 97.8135 34.1301V33.5215H94.8711V34.1301C94.8711 35.1769 95.0721 36.1811 95.4681 37.1122C95.8641 38.0312 96.4063 38.8406 97.0886 39.5223C97.7648 40.1978 98.5811 40.7455 99.4949 41.135C100.421 41.5306 101.426 41.7315 102.48 41.7315C103.534 41.7315 104.533 41.5306 105.459 41.135C106.379 40.7455 107.189 40.1978 107.871 39.5223C108.554 38.8406 109.096 38.0251 109.486 37.1122C109.882 36.1871 110.083 35.189 110.083 34.1301C110.083 33.0711 109.851 32.2252 109.394 31.4523C108.968 30.7219 108.408 30.0525 107.737 29.4561C107.086 28.8718 106.336 28.3484 105.514 27.892C104.783 27.4842 104.015 27.0825 103.156 26.6504C102.48 26.3279 101.773 25.9749 101.067 25.5976C100.433 25.2568 99.8483 24.8794 99.3243 24.4777C98.8492 24.1126 98.4654 23.6987 98.1912 23.2545C97.9354 22.8467 97.8135 22.4024 97.8135 21.8851C97.8135 21.24 97.9354 20.6314 98.179 20.0654C98.4288 19.4873 98.7517 19.0065 99.172 18.5865C99.5924 18.1727 100.092 17.838 100.658 17.5945C101.219 17.3511 101.828 17.2294 102.48 17.2294C103.132 17.2294 103.723 17.3511 104.295 17.5945C104.862 17.844 105.362 18.1788 105.776 18.5865C106.19 19.0065 106.519 19.4873 106.769 20.0654C107.012 20.6314 107.134 21.24 107.134 21.8851V22.4937H110.077V21.8851C110.077 20.8323 109.876 19.8281 109.48 18.9091C109.09 17.9901 108.542 17.1807 107.865 16.5051" fill="white"/>
<path d="M64.1187 31.6896V21.873C64.1187 21.2278 64.2406 20.6192 64.4903 20.0533C64.734 19.4812 65.0691 18.9882 65.4833 18.5744C65.8976 18.1605 66.391 17.8319 66.9637 17.5824C67.5241 17.3389 68.1394 17.2172 68.7791 17.2172C69.4188 17.2172 70.0341 17.3389 70.6006 17.5824C71.1733 17.8319 71.6728 18.1666 72.081 18.5744C72.4952 18.9882 72.8303 19.4812 73.0801 20.035C73.3055 20.5401 73.4334 21.1305 73.4456 21.6599C73.3116 25.0316 68.5293 29.0422 64.1248 31.6896M73.4456 34.1301C73.4456 34.7752 73.3237 35.3838 73.0801 35.9437C72.8364 36.5097 72.5013 37.0087 72.0871 37.4226C71.6728 37.8364 71.1733 38.1712 70.6006 38.4146C69.4858 38.9015 68.0907 38.9076 66.9637 38.4146C66.3971 38.1712 65.8976 37.8364 65.4833 37.4226C65.0691 37.0087 64.734 36.5097 64.4903 35.9376C64.3685 35.6577 64.2771 35.3655 64.2162 35.0491C75.1818 29.0787 76.3027 23.4431 76.3819 21.7999V21.4835C76.3332 20.5706 76.1382 19.7003 75.791 18.8969C75.395 17.9719 74.8528 17.1624 74.1766 16.493C73.5004 15.8174 72.6902 15.2697 71.7703 14.8741C70.8443 14.4785 69.8452 14.2777 68.7852 14.2777C67.7252 14.2777 66.7261 14.4785 65.8062 14.8741C64.8863 15.2697 64.07 15.8113 63.3999 16.4869C62.7236 17.1624 62.1754 17.9719 61.7794 18.8969C61.3834 19.8159 61.1824 20.8201 61.1824 21.873V34.1301C61.1824 35.183 61.3834 36.1871 61.7794 37.1061C62.1754 38.0251 62.7176 38.8406 63.3999 39.5101C64.0761 40.1856 64.8863 40.7334 65.8062 41.1229C66.7261 41.5184 67.7313 41.7193 68.7852 41.7193C69.8391 41.7193 70.8443 41.5184 71.7642 41.1229C72.6841 40.7334 73.4943 40.1856 74.1705 39.5101C74.8528 38.8345 75.395 38.0251 75.7849 37.1C76.1809 36.175 76.3819 35.1769 76.3819 34.124V33.5154H73.4395V34.124L73.4456 34.1301Z" fill="white"/>
<path d="M124.003 24.3134V34.1301C124.003 34.7752 123.881 35.3899 123.638 35.9498C123.394 36.5158 123.059 37.0148 122.645 37.4287C122.23 37.8364 121.737 38.1712 121.164 38.4207C120.598 38.6641 119.982 38.7858 119.343 38.7858C118.703 38.7858 118.094 38.6641 117.521 38.4207C116.949 38.1712 116.449 37.8364 116.041 37.4226C115.627 37.0148 115.292 36.5219 115.042 35.968C114.816 35.4568 114.689 34.8726 114.676 34.3431C114.81 30.9654 119.593 26.9547 123.997 24.3134M126.349 18.8969C125.953 17.9719 125.41 17.1624 124.734 16.4869C124.052 15.8052 123.242 15.2636 122.328 14.8741C121.408 14.4785 120.403 14.2777 119.343 14.2777C118.283 14.2777 117.29 14.4785 116.364 14.8741C115.444 15.2697 114.634 15.8113 113.951 16.493C113.275 17.1685 112.733 17.9779 112.337 18.8969C111.941 19.822 111.74 20.8201 111.74 21.873V22.4816H114.682V21.873C114.682 21.24 114.804 20.6253 115.048 20.0533C115.298 19.4751 115.627 18.9882 116.047 18.5744C116.461 18.1605 116.955 17.8258 117.527 17.5824C118.1 17.3328 118.697 17.2172 119.349 17.2172C120.001 17.2172 120.604 17.3389 121.17 17.5824C121.737 17.8258 122.237 18.1605 122.651 18.5744C123.065 18.9943 123.4 19.4873 123.644 20.0533C123.766 20.3393 123.857 20.6375 123.924 20.9479C121.237 22.4268 112.075 27.9163 111.758 34.197L111.77 34.5135C111.807 35.4203 112.002 36.2906 112.349 37.1122C112.745 38.0312 113.287 38.8406 113.964 39.5162C114.646 40.1978 115.456 40.7394 116.376 41.1289C117.302 41.5245 118.301 41.7315 119.355 41.7315C120.409 41.7315 121.414 41.5306 122.334 41.135C122.943 40.8794 123.504 40.5508 124.015 40.1613V41.4758H126.958V21.8851C126.958 20.8383 126.757 19.8402 126.361 18.9091" fill="white"/>
<path d="M13.4942 16.493C12.818 15.8174 12.0078 15.2697 11.0818 14.8741C10.1558 14.4785 9.15065 14.2777 8.10282 14.2777C6.9758 14.2777 5.9097 14.5089 4.92279 14.9654C4.39279 15.2088 3.89325 15.5131 3.43635 15.8722V14.5455H0.5V41.4698H3.44244V21.879C3.44244 21.2339 3.56428 20.6253 3.80796 20.0593C4.05164 19.4933 4.3867 18.9943 4.80095 18.5804C5.20912 18.1666 5.70866 17.8319 6.28131 17.5884C7.40224 17.1016 8.79731 17.1016 9.91824 17.5884C10.4909 17.838 10.9904 18.1727 11.3986 18.5865C11.8128 18.9943 12.1418 19.4933 12.3916 20.0654C12.6353 20.6253 12.7571 21.24 12.7571 21.8851V41.4758H15.6995V21.8851C15.6995 20.8323 15.4985 19.8342 15.1025 18.9091C14.7066 17.9901 14.1644 17.1807 13.4882 16.5051" fill="white"/>
<path d="M31.0027 21.873V34.124C31.0027 34.7691 30.8809 35.3777 30.6372 35.9437C30.3874 36.5219 30.0645 37.0027 29.6442 37.4226C29.2299 37.8364 28.7304 38.1712 28.1577 38.4146C27.5973 38.658 26.982 38.7858 26.3362 38.7858C25.6905 38.7858 25.0874 38.6641 24.5147 38.4146C23.9482 38.1712 23.4486 37.8364 23.0344 37.4226C22.614 37.0027 22.2911 36.5219 22.0414 35.9376C21.7977 35.3777 21.6758 34.763 21.6758 34.1179V21.8669C21.6758 21.2218 21.7977 20.6132 22.0414 20.0472C22.2911 19.4751 22.6262 18.976 23.0344 18.5683C23.4486 18.1544 23.9482 17.8197 24.5147 17.5763C25.0874 17.3267 25.6844 17.2111 26.3362 17.2111C26.9881 17.2111 27.5912 17.3328 28.1577 17.5763C28.7243 17.8197 29.2238 18.1544 29.6381 18.5683C30.0523 18.976 30.3813 19.4751 30.6311 20.0472C30.8748 20.6132 30.9966 21.2218 30.9966 21.8669M31.7276 16.493C31.0514 15.8174 30.2412 15.2758 29.3213 14.8802C27.4632 14.0829 25.2214 14.0829 23.3572 14.8802C22.4373 15.2758 21.6271 15.8174 20.9509 16.493C20.2747 17.1685 19.7264 17.9779 19.3304 18.903C18.9344 19.8281 18.7334 20.8323 18.7334 21.879V34.1301C18.7334 35.1769 18.9344 36.1811 19.3304 37.1122C19.7203 38.0251 20.2686 38.8345 20.9509 39.5223C21.6332 40.2039 22.4434 40.7455 23.3572 41.135C24.2832 41.5306 25.2823 41.7315 26.3362 41.7315C27.3901 41.7315 28.3953 41.5306 29.3152 41.135C30.229 40.7455 31.0392 40.2039 31.7276 39.5223C32.4099 38.8406 32.9521 38.0312 33.342 37.1122C33.738 36.1871 33.939 35.189 33.939 34.1301V21.879C33.939 20.8262 33.738 19.8281 33.342 18.903C32.946 17.9779 32.4039 17.1685 31.7215 16.493" fill="white"/>
<path d="M49.2361 21.873V34.124C49.2361 34.7691 49.1143 35.3777 48.8706 35.9437C48.6208 36.5219 48.2918 37.0027 47.8776 37.4226C47.4633 37.8364 46.9638 38.1712 46.3911 38.4146C45.2641 38.9015 43.8751 38.9015 42.7542 38.4146C42.1816 38.1651 41.6881 37.8364 41.2738 37.4226C40.8535 37.0027 40.5306 36.5158 40.2808 35.9376C40.0372 35.3716 39.9153 34.763 39.9153 34.1179V21.8669C39.9153 21.2278 40.0372 20.6132 40.2808 20.0472C40.5306 19.4751 40.8657 18.976 41.2738 18.5683C41.6881 18.1544 42.1876 17.8197 42.7542 17.5763C43.3147 17.3328 43.93 17.2111 44.5757 17.2111C45.2215 17.2111 45.8307 17.3328 46.3972 17.5763C46.9699 17.8258 47.4633 18.1544 47.8776 18.5683C48.2857 18.976 48.6208 19.4751 48.8706 20.0472C49.1143 20.6132 49.2361 21.2218 49.2361 21.8669M49.9671 16.493C49.2909 15.8174 48.4807 15.2697 47.5547 14.8741C46.6287 14.4785 45.6235 14.2777 44.5757 14.2777C43.4487 14.2777 42.3765 14.5089 41.3957 14.9654C40.8657 15.2088 40.3661 15.5131 39.9092 15.8722V0H36.9668V41.4637H39.9092V40.1065C40.3661 40.4595 40.8596 40.7638 41.3835 41.0133C42.3643 41.488 43.4365 41.7254 44.5696 41.7254C45.6235 41.7254 46.6287 41.5245 47.5486 41.1289C48.4624 40.7394 49.2726 40.1978 49.961 39.5162C50.6373 38.8345 51.1794 38.0251 51.5754 37.1061C51.9714 36.1811 52.1724 35.1769 52.1724 34.124V21.873C52.1724 20.8262 51.9714 19.822 51.5754 18.8969C51.1794 17.9719 50.6312 17.1624 49.961 16.493" fill="white"/>
<path d="M54.8406 49.4302C54.4568 49.0468 53.9999 48.7425 53.476 48.5173C52.4343 48.073 51.1489 48.073 50.1132 48.5173C49.5893 48.7425 49.1324 49.0468 48.7486 49.4302C48.3648 49.8136 48.0602 50.2701 47.8348 50.7874C47.6094 51.3047 47.4937 51.8707 47.4937 52.4671V59.6546C47.4937 60.245 47.6094 60.811 47.8287 61.3343C48.0541 61.8517 48.3587 62.3142 48.7425 62.6976C49.1263 63.081 49.5832 63.3853 50.1071 63.6105C50.6249 63.8357 51.1915 63.9452 51.7885 63.9452C52.3855 63.9452 52.946 63.8296 53.4699 63.6105C53.9877 63.3853 54.4507 63.081 54.8345 62.6976C55.2244 62.3142 55.5229 61.8577 55.7483 61.3343C55.9737 60.811 56.0834 60.251 56.0834 59.6546V59.4538H54.6822V59.6546C54.6822 60.0502 54.603 60.4336 54.4507 60.7805C54.2984 61.1335 54.0913 61.4439 53.8354 61.6995C53.5796 61.9551 53.2689 62.162 52.9155 62.3142C52.2089 62.6124 51.356 62.6124 50.6554 62.3142C50.3021 62.156 49.9914 61.9551 49.7355 61.6995C49.4796 61.4439 49.2725 61.1335 49.1202 60.7805C48.9679 60.4336 48.8948 60.0502 48.8948 59.6546V52.4671C48.8948 52.0715 48.974 51.6881 49.1202 51.3351C49.2725 50.9882 49.4857 50.6717 49.7355 50.4161C49.9914 50.1666 50.3021 49.9536 50.6554 49.8014C51.356 49.5032 52.2089 49.5032 52.9155 49.8014C53.2689 49.9536 53.5796 50.1666 53.8354 50.4161C54.0913 50.6717 54.2984 50.9821 54.4507 51.3351C54.603 51.6881 54.6822 52.0654 54.6822 52.4671V52.6618H56.0834V52.4671C56.0834 51.8707 55.9737 51.3047 55.7483 50.7874C55.529 50.2701 55.2244 49.8136 54.8345 49.4302" fill="white"/>
<path d="M60.7803 62.5455C61.1641 62.9289 61.621 63.2332 62.1389 63.4583C63.2232 63.9209 64.5513 63.9026 65.6174 63.4097C66.0256 63.221 66.3911 62.9776 66.714 62.6793V63.6409H68.1151V48.1765H66.714V59.5025C66.714 59.8981 66.6348 60.2815 66.4825 60.6284C66.3302 60.9814 66.123 61.2917 65.8672 61.5474C65.6113 61.803 65.3006 62.0099 64.9473 62.162C64.2467 62.4663 63.3938 62.4663 62.6871 62.162C62.3338 62.0099 62.0292 61.803 61.7733 61.5474C61.5175 61.2917 61.3103 60.9814 61.158 60.6284C61.0057 60.2815 60.9266 59.8981 60.9266 59.5025V48.1765H59.5254V59.5025C59.5254 60.0989 59.635 60.6649 59.8605 61.1822C60.0859 61.6995 60.3905 62.156 60.7743 62.5394" fill="white"/>
<path d="M85.9222 52.6679V52.4732C85.9222 51.8768 85.8065 51.3168 85.581 50.7935C85.3556 50.2701 85.051 49.8197 84.6672 49.4302C84.2835 49.0468 83.8265 48.7425 83.3026 48.5173C82.2609 48.0669 80.9816 48.0669 79.9338 48.5173C79.4159 48.7425 78.959 49.0468 78.5691 49.4302C78.1853 49.8136 77.8808 50.2701 77.6553 50.7935C77.4299 51.3168 77.3142 51.8768 77.3142 52.4732C77.3142 53.0331 77.4421 53.5321 77.698 53.9642C77.9417 54.3781 78.2585 54.7554 78.6423 55.0841C79.02 55.4066 79.4464 55.7048 79.9155 55.9604C80.3785 56.2221 80.8536 56.4656 81.3105 56.6847C81.737 56.9038 82.1512 57.1229 82.5472 57.3359C82.9371 57.5489 83.2783 57.768 83.5707 58.0053C83.857 58.2366 84.0885 58.4922 84.2591 58.7661C84.4236 59.0338 84.5028 59.3199 84.5028 59.6546C84.5028 60.0502 84.4236 60.4336 84.2774 60.7805C84.119 61.1335 83.9118 61.4439 83.656 61.6995C83.4001 61.9551 83.0894 62.162 82.7361 62.3142C82.0355 62.6185 81.1765 62.6185 80.4759 62.3142C80.1287 62.162 79.8119 61.9551 79.5561 61.6995C79.3002 61.4439 79.0931 61.1335 78.9408 60.7805C78.7885 60.4275 78.7154 60.0502 78.7154 59.6546V59.4538H77.3081V59.6546C77.3081 60.245 77.4239 60.811 77.6493 61.3343C77.8686 61.8577 78.1793 62.3142 78.5631 62.6976C78.9469 63.081 79.4038 63.3914 79.9277 63.6166C80.4516 63.8357 81.0181 63.9513 81.6151 63.9513C82.2122 63.9513 82.7787 63.8357 83.2965 63.6166C83.8144 63.3914 84.2713 63.081 84.6611 62.6976C85.0449 62.3142 85.3495 61.8577 85.5749 61.3343C85.8004 60.817 85.9161 60.251 85.9161 59.6546C85.9161 59.0582 85.7882 58.5896 85.5384 58.1636C85.2947 57.7558 84.9779 57.3724 84.6002 57.0316C84.2225 56.6968 83.7961 56.3986 83.327 56.1369C82.864 55.8813 82.4071 55.6379 81.9502 55.4127C81.5299 55.2119 81.1156 55.0049 80.7196 54.7919C80.3358 54.5789 79.9825 54.3537 79.6779 54.1225C79.3855 53.8912 79.1479 53.6356 78.9712 53.3617C78.8128 53.094 78.7275 52.8018 78.7275 52.4732C78.7275 52.0715 78.8006 51.7003 78.9529 51.3473C79.1052 50.9943 79.3124 50.6839 79.5682 50.4283C79.8241 50.1727 80.1348 49.9658 80.4881 49.8136C81.1887 49.5154 82.0416 49.5093 82.7483 49.8136C83.1016 49.9658 83.4123 50.1727 83.6682 50.4283C83.924 50.69 84.1311 50.9882 84.2895 51.3473C84.4357 51.7003 84.5149 52.0776 84.5149 52.4732V52.6679H85.9161H85.9222Z" fill="white"/>
<path d="M127.5 52.6679V52.4732C127.5 51.8768 127.384 51.3168 127.159 50.7935C126.934 50.2701 126.629 49.8197 126.245 49.4302C125.861 49.0468 125.404 48.7425 124.887 48.5173C123.845 48.0669 122.566 48.0669 121.518 48.5173C121 48.7425 120.543 49.0468 120.159 49.4302C119.775 49.8136 119.471 50.2701 119.245 50.7935C119.02 51.3168 118.904 51.8768 118.904 52.4732C118.904 53.0331 119.032 53.5321 119.282 53.9642C119.526 54.3781 119.849 54.7554 120.226 55.0841C120.604 55.4066 121.03 55.7048 121.499 55.9604C121.969 56.2221 122.438 56.4656 122.901 56.6847C123.327 56.9038 123.741 57.1229 124.137 57.3359C124.527 57.5489 124.868 57.768 125.167 58.0053C125.453 58.2366 125.685 58.4922 125.855 58.7661C126.02 59.0338 126.099 59.3199 126.099 59.6546C126.099 60.0502 126.02 60.4336 125.874 60.7805C125.715 61.1335 125.514 61.4439 125.258 61.6995C125.002 61.9551 124.692 62.162 124.338 62.3142C123.632 62.6185 122.779 62.6185 122.078 62.3142C121.725 62.162 121.414 61.9551 121.158 61.6995C120.902 61.4439 120.695 61.1335 120.543 60.7805C120.391 60.4275 120.318 60.0502 120.318 59.6546V59.4538H118.91V59.6546C118.91 60.245 119.026 60.811 119.252 61.3343C119.471 61.8577 119.782 62.3142 120.165 62.6976C120.549 63.081 121.012 63.3914 121.524 63.6166C122.048 63.8357 122.614 63.9513 123.211 63.9513C123.808 63.9513 124.375 63.8357 124.893 63.6166C125.417 63.3914 125.874 63.081 126.257 62.6976C126.635 62.3142 126.946 61.8577 127.165 61.3343C127.39 60.817 127.506 60.251 127.506 59.6546C127.506 59.0582 127.378 58.5896 127.129 58.1636C126.885 57.7558 126.568 57.3724 126.184 57.0316C125.807 56.6968 125.374 56.3986 124.911 56.1369C124.448 55.8813 123.991 55.6379 123.54 55.4127C123.12 55.2119 122.706 55.0049 122.31 54.7919C121.92 54.5789 121.573 54.3537 121.268 54.1225C120.969 53.8912 120.732 53.6356 120.567 53.3617C120.403 53.094 120.324 52.8018 120.324 52.4732C120.324 52.0715 120.403 51.7003 120.549 51.3473C120.701 50.9943 120.909 50.6839 121.164 50.4283C121.42 50.1727 121.731 49.9658 122.084 49.8136C122.785 49.5154 123.638 49.5093 124.344 49.8136C124.698 49.9658 125.008 50.1727 125.264 50.4283C125.52 50.69 125.721 50.9882 125.88 51.3473C126.032 51.7003 126.105 52.0776 126.105 52.4732V52.6679H127.512H127.5Z" fill="white"/>
<path d="M102.346 49.4302C101.962 49.0468 101.499 48.7425 100.982 48.5173C99.8972 48.0548 98.5692 48.073 97.5031 48.566C97.101 48.7486 96.7355 48.992 96.4065 49.2963V48.3347H95.0054V63.7931H96.4065V52.4671C96.4065 52.0654 96.4796 51.6881 96.6319 51.3351C96.7842 50.9821 96.9914 50.6717 97.2472 50.4161C97.5031 50.1605 97.8138 49.9536 98.161 49.8014C98.8616 49.5032 99.7206 49.5032 100.421 49.8014C100.774 49.9597 101.079 50.1666 101.341 50.4161C101.597 50.6717 101.804 50.9821 101.962 51.3351C102.109 51.6881 102.188 52.0654 102.188 52.4671V63.7931H103.589V52.4671C103.589 51.8707 103.479 51.3047 103.254 50.7874C103.029 50.2701 102.724 49.8075 102.34 49.4302" fill="white"/>
<path d="M114.244 59.6911C114.244 60.0928 114.165 60.4701 114.012 60.8231C113.86 61.1761 113.647 61.4865 113.391 61.7421C113.135 61.9977 112.824 62.2046 112.471 62.3568C111.764 62.6611 110.905 62.6611 110.205 62.3568C109.851 62.2046 109.541 61.9977 109.285 61.7421C109.029 61.4865 108.822 61.1761 108.67 60.8231C108.578 60.6101 108.511 60.3849 108.475 60.1476C109.894 59.3747 115.462 56.1248 115.645 52.4488V52.2663C115.62 51.749 115.511 51.2499 115.316 50.7995C115.09 50.2761 114.786 49.8136 114.402 49.4363C114.018 49.0529 113.555 48.7425 113.031 48.5173C111.984 48.0669 110.704 48.0669 109.656 48.5173C109.133 48.7425 108.67 49.0468 108.286 49.4363C107.902 49.8197 107.591 50.2761 107.372 50.7995C107.147 51.3229 107.037 51.8889 107.037 52.4854V59.6911C107.037 60.2876 107.153 60.8536 107.372 61.3769C107.591 61.9003 107.902 62.3568 108.286 62.7463C108.67 63.1297 109.133 63.4401 109.656 63.6592C110.18 63.8844 110.747 64 111.344 64C111.941 64 112.507 63.8844 113.031 63.6592C113.555 63.4401 114.018 63.1297 114.402 62.7463C114.786 62.3568 115.097 61.9003 115.316 61.3769C115.541 60.8536 115.657 60.2876 115.657 59.6911V59.4903H114.25V59.6911H114.244ZM108.438 52.4854C108.438 52.0837 108.517 51.7003 108.67 51.3534C108.822 51.0004 109.029 50.69 109.285 50.4344C109.541 50.1788 109.851 49.9718 110.205 49.8136C110.558 49.6615 110.936 49.5823 111.338 49.5823C111.74 49.5823 112.118 49.6615 112.471 49.8136C112.824 49.9658 113.135 50.1788 113.391 50.4344C113.653 50.69 113.86 50.9943 114.012 51.3412C114.152 51.6577 114.238 52.0289 114.238 52.3636C114.158 54.4755 111.125 56.9646 108.438 58.5348V52.4854Z" fill="white"/>
<path d="M89.8149 44.5432C89.6322 44.7197 89.5469 44.9509 89.5469 45.2309C89.5469 45.5108 89.6383 45.7421 89.8149 45.9247C89.9916 46.1012 90.2292 46.1925 90.5033 46.1925C90.7592 46.1925 90.9846 46.1012 91.1734 45.9247C91.3684 45.7421 91.4659 45.5108 91.4659 45.2309C91.4659 44.9509 91.3623 44.7197 91.1734 44.5371C90.7714 44.1658 90.1561 44.1963 89.8149 44.5432Z" fill="white"/>
<path d="M71.8801 44.5432C71.6973 44.7197 71.6121 44.9509 71.6121 45.2309C71.6121 45.5108 71.7034 45.7421 71.8801 45.9247C72.0568 46.1012 72.2944 46.1925 72.5746 46.1925C72.8244 46.1925 73.0498 46.1012 73.2386 45.9247C73.4336 45.7421 73.531 45.5108 73.531 45.2309C73.531 44.9509 73.4336 44.7197 73.2386 44.5371C72.8426 44.1658 72.2273 44.1963 71.8801 44.5432Z" fill="white"/>
</g>
<defs>
<clipPath id="clip0_72_1596">
<rect width="127" height="64" fill="white" transform="translate(0.5)"/>
</clipPath>
</defs>
</svg>
