<svg width="128" height="64" viewBox="0 0 128 64" fill="none" xmlns="http://www.w3.org/2000/svg">
<g clip-path="url(#clip0_207_2231)">
<path d="M71.5023 49.7344H72.5136V63.7991H73.9148V48.3042H71.5023V49.7344Z" fill="#0D0802"/>
<path d="M89.4311 49.7344H90.4424V63.7991H91.8496V48.3042H89.4311V49.7344Z" fill="#0D0802"/>
<path d="M58.1547 0H55.2123V41.4637H58.1547V0Z" fill="#0D0802"/>
<path d="M91.0089 16.4931C90.3327 15.8176 89.5224 15.2698 88.5964 14.8743C87.6705 14.4787 86.6653 14.2778 85.6175 14.2778C84.5696 14.2778 83.5645 14.4787 82.6385 14.8743C81.7186 15.2698 80.9083 15.8115 80.226 16.4931C79.5498 17.1687 79.0076 17.9781 78.6117 18.8971C78.2157 19.8221 78.0146 20.8263 78.0146 21.8731C78.0146 22.9199 78.2461 23.7841 78.6969 24.557C79.1295 25.2934 79.6899 25.9568 80.3662 26.535C81.0241 27.101 81.7673 27.6183 82.5775 28.0686C83.339 28.4946 84.1493 28.9085 84.9656 29.3041C85.6906 29.6875 86.3972 30.0527 87.0734 30.4178C87.7192 30.7647 88.2918 31.142 88.7853 31.5315C89.2544 31.9089 89.626 32.3227 89.9001 32.767C90.156 33.1748 90.2778 33.619 90.2778 34.1363C90.2778 34.7754 90.156 35.39 89.9062 35.956C89.6565 36.5281 89.3275 37.0272 88.9132 37.4349C88.499 37.8488 88.0055 38.1835 87.439 38.4269C86.8602 38.6765 86.2632 38.7982 85.6175 38.7982C84.9717 38.7982 84.3686 38.6765 83.7959 38.4269C83.2355 38.1835 82.7359 37.8488 82.3156 37.4349C81.9013 37.0272 81.5724 36.5281 81.3226 35.956C81.0789 35.3961 80.951 34.7875 80.951 34.1424V33.5338H78.0085V34.1424C78.0085 35.1953 78.2096 36.1934 78.6056 37.1185C79.0015 38.0374 79.5437 38.8469 80.2199 39.5285C80.9022 40.2101 81.7125 40.7518 82.6263 41.1413C83.5523 41.5369 84.5514 41.7377 85.6053 41.7377C86.6592 41.7377 87.6644 41.5369 88.5843 41.1413C89.5042 40.7518 90.3144 40.2101 90.9967 39.5285C91.6729 38.8469 92.2151 38.0374 92.6111 37.1185C93.0071 36.1934 93.2081 35.1953 93.2081 34.1424C93.2081 33.0895 92.9766 32.2375 92.5258 31.4646C92.0933 30.7282 91.5328 30.0587 90.8627 29.4684C90.2108 28.8841 89.4615 28.3608 88.6391 27.9043C87.8837 27.4844 87.0978 27.0705 86.2815 26.6628C85.5992 26.3402 84.9169 25.9933 84.198 25.6099C83.5584 25.263 82.9674 24.8857 82.4557 24.4901C81.9805 24.1249 81.5967 23.7111 81.3226 23.2668C81.0667 22.859 80.9449 22.4087 80.9449 21.8914C80.9449 21.2463 81.0667 20.6377 81.3165 20.0717C81.5663 19.4996 81.8891 19.0127 82.3034 18.5928C82.7177 18.1789 83.2172 17.8442 83.7838 17.6008C84.3564 17.3512 84.9534 17.2356 85.6053 17.2356C86.2571 17.2356 86.8541 17.3573 87.4268 17.6008C87.9994 17.8503 88.4929 18.185 88.9071 18.5928C89.3275 19.0127 89.6504 19.4996 89.9001 20.0778C90.1438 20.6438 90.2717 21.2523 90.2717 21.8975V22.5061H93.2142V21.8975C93.2142 20.8446 93.0132 19.8465 92.6172 18.9214C92.2212 18.0024 91.679 17.193 91.0028 16.5175" fill="#0D0802"/>
<path d="M107.872 16.4933C107.201 15.8178 106.385 15.2701 105.459 14.8745C103.601 14.0772 101.347 14.0833 99.495 14.8745C98.5691 15.2701 97.7588 15.8178 97.0887 16.4873C96.4125 17.1628 95.8642 17.9722 95.4682 18.8973C95.0722 19.8224 94.8712 20.8265 94.8712 21.8733C94.8712 22.9201 95.1027 23.7904 95.5535 24.5572C95.986 25.2936 96.5465 25.957 97.2227 26.5352C97.8807 27.1012 98.63 27.6185 99.4402 28.0688C100.202 28.4888 101.012 28.9087 101.828 29.3043C102.553 29.6877 103.26 30.0529 103.936 30.418C104.582 30.7649 105.161 31.1423 105.648 31.5318C106.117 31.9091 106.489 32.3229 106.763 32.7611C107.019 33.1689 107.141 33.6192 107.141 34.1305C107.141 34.7756 107.019 35.3842 106.775 35.9502C106.519 36.5344 106.196 37.0213 105.776 37.4291C105.362 37.8429 104.862 38.1776 104.296 38.4211C103.723 38.6706 103.126 38.7923 102.474 38.7923C101.822 38.7923 101.213 38.6706 100.653 38.4211C100.092 38.1776 99.5925 37.8429 99.1722 37.4291C98.764 37.0213 98.4289 36.5222 98.1792 35.9502C97.9355 35.3842 97.8137 34.7756 97.8137 34.1305V33.5219H94.8712V34.1305C94.8712 35.1773 95.0722 36.1814 95.4682 37.1126C95.8642 38.0316 96.4064 38.841 97.0887 39.5226C97.7649 40.1982 98.5812 40.7459 99.495 41.1354C100.421 41.531 101.426 41.7318 102.48 41.7318C103.534 41.7318 104.533 41.531 105.459 41.1354C106.379 40.7459 107.189 40.1982 107.872 39.5226C108.554 38.841 109.096 38.0255 109.486 37.1126C109.882 36.1875 110.083 35.1894 110.083 34.1305C110.083 33.0715 109.851 32.2256 109.395 31.4526C108.968 30.7223 108.408 30.0529 107.738 29.4564C107.086 28.8722 106.336 28.3488 105.514 27.8924C104.783 27.4846 104.015 27.0829 103.156 26.6508C102.48 26.3283 101.773 25.9753 101.067 25.5979C100.433 25.2571 99.8484 24.8798 99.3245 24.4781C98.8493 24.113 98.4655 23.6991 98.1914 23.2548C97.9355 22.8471 97.8137 22.4028 97.8137 21.8855C97.8137 21.2404 97.9355 20.6318 98.1792 20.0658C98.4289 19.4876 98.7518 19.0068 99.1722 18.5869C99.5925 18.1731 100.092 17.8383 100.659 17.5949C101.219 17.3515 101.828 17.2297 102.48 17.2297C103.132 17.2297 103.723 17.3515 104.296 17.5949C104.862 17.8444 105.362 18.1792 105.776 18.5869C106.19 19.0068 106.519 19.4876 106.769 20.0658C107.013 20.6318 107.134 21.2404 107.134 21.8855V22.4941H110.077V21.8855C110.077 20.8326 109.876 19.8284 109.48 18.9095C109.09 17.9905 108.542 17.1811 107.865 16.5055" fill="#0D0802"/>
<path d="M64.1188 31.6898V21.8731C64.1188 21.228 64.2406 20.6194 64.4904 20.0534C64.7341 19.4813 65.0691 18.9884 65.4834 18.5745C65.8976 18.1607 66.3911 17.832 66.9637 17.5825C67.5242 17.3391 68.1395 17.2174 68.7792 17.2174C69.4188 17.2174 70.0341 17.3391 70.6007 17.5825C71.1733 17.832 71.6729 18.1668 72.081 18.5745C72.4953 18.9884 72.8303 19.4813 73.0801 20.0352C73.3055 20.5403 73.4335 21.1306 73.4456 21.6601C73.3116 25.0317 68.5294 29.0424 64.1249 31.6898M73.4456 34.1302C73.4456 34.7754 73.3238 35.384 73.0801 35.9439C72.8364 36.5099 72.5014 37.0089 72.0871 37.4228C71.6729 37.8366 71.1733 38.1713 70.6007 38.4148C69.4858 38.9016 68.0908 38.9077 66.9637 38.4148C66.3972 38.1713 65.8976 37.8366 65.4834 37.4228C65.0691 37.0089 64.7341 36.5099 64.4904 35.9378C64.3686 35.6578 64.2772 35.3657 64.2162 35.0492C75.1819 29.0789 76.3028 23.4433 76.382 21.8001V21.4836C76.3332 20.5707 76.1383 19.7004 75.7911 18.8971C75.3951 17.972 74.8529 17.1626 74.1767 16.4931C73.5005 15.8176 72.6902 15.2698 71.7703 14.8743C70.8443 14.4787 69.8453 14.2778 68.7853 14.2778C67.7252 14.2778 66.7262 14.4787 65.8063 14.8743C64.8864 15.2698 64.07 15.8115 63.3999 16.487C62.7237 17.1626 62.1754 17.972 61.7794 18.8971C61.3835 19.8161 61.1824 20.8202 61.1824 21.8731V34.1302C61.1824 35.1831 61.3835 36.1873 61.7794 37.1063C62.1754 38.0253 62.7176 38.8408 63.3999 39.5102C64.0761 40.1858 64.8864 40.7335 65.8063 41.123C66.7262 41.5186 67.7313 41.7194 68.7853 41.7194C69.8392 41.7194 70.8444 41.5186 71.7642 41.123C72.6841 40.7335 73.4944 40.1858 74.1706 39.5102C74.8529 38.8347 75.3951 38.0253 75.785 37.1002C76.1809 36.1751 76.382 35.177 76.382 34.1242V33.5156H73.4395V34.1242L73.4456 34.1302Z" fill="#0D0802"/>
<path d="M124.003 24.3136V34.1302C124.003 34.7754 123.881 35.39 123.638 35.9499C123.394 36.5159 123.059 37.015 122.645 37.4288C122.23 37.8366 121.737 38.1713 121.164 38.4209C120.598 38.6643 119.982 38.786 119.343 38.786C118.703 38.786 118.094 38.6643 117.521 38.4209C116.949 38.1713 116.449 37.8366 116.041 37.4228C115.627 37.015 115.292 36.522 115.042 35.9682C114.816 35.457 114.689 34.8727 114.676 34.3433C114.81 30.9655 119.593 26.9549 123.997 24.3136M126.349 18.8971C125.953 17.972 125.41 17.1626 124.734 16.487C124.052 15.8054 123.242 15.2638 122.328 14.8743C121.408 14.4787 120.403 14.2778 119.343 14.2778C118.283 14.2778 117.29 14.4787 116.364 14.8743C115.444 15.2698 114.634 15.8115 113.951 16.4931C113.275 17.1687 112.733 17.9781 112.337 18.8971C111.941 19.8221 111.74 20.8202 111.74 21.8731V22.4817H114.682V21.8731C114.682 21.2402 114.804 20.6255 115.048 20.0534C115.298 19.4752 115.627 18.9884 116.047 18.5745C116.461 18.1607 116.955 17.8259 117.527 17.5825C118.1 17.333 118.697 17.2174 119.349 17.2174C120.001 17.2174 120.604 17.3391 121.17 17.5825C121.737 17.8259 122.237 18.1607 122.651 18.5745C123.065 18.9945 123.4 19.4874 123.644 20.0534C123.766 20.3395 123.857 20.6377 123.924 20.948C121.237 22.4269 112.075 27.9165 111.758 34.1972L111.77 34.5137C111.807 35.4205 112.002 36.2908 112.349 37.1124C112.745 38.0313 113.287 38.8408 113.964 39.5163C114.646 40.198 115.456 40.7396 116.376 41.1291C117.302 41.5247 118.301 41.7316 119.355 41.7316C120.409 41.7316 121.414 41.5308 122.334 41.1352C122.943 40.8796 123.504 40.5509 124.015 40.1614V41.476H126.958V21.8853C126.958 20.8385 126.757 19.8404 126.361 18.9093" fill="#0D0802"/>
<path d="M13.4942 16.4931C12.818 15.8176 12.0078 15.2698 11.0818 14.8743C10.1558 14.4787 9.15065 14.2778 8.10282 14.2778C6.9758 14.2778 5.9097 14.5091 4.92279 14.9655C4.39279 15.209 3.89325 15.5133 3.43635 15.8724V14.5456H0.5V41.4699H3.44244V21.8792C3.44244 21.2341 3.56428 20.6255 3.80796 20.0595C4.05164 19.4935 4.3867 18.9945 4.80095 18.5806C5.20912 18.1668 5.70866 17.832 6.28131 17.5886C7.40224 17.1017 8.79731 17.1017 9.91824 17.5886C10.4909 17.8381 10.9904 18.1729 11.3986 18.5867C11.8128 18.9945 12.1418 19.4935 12.3916 20.0656C12.6353 20.6255 12.7571 21.2402 12.7571 21.8853V41.476H15.6995V21.8853C15.6995 20.8324 15.4985 19.8343 15.1025 18.9093C14.7066 17.9903 14.1644 17.1808 13.4882 16.5053" fill="#0D0802"/>
<path d="M31.0027 21.8729V34.124C31.0027 34.7691 30.8809 35.3777 30.6372 35.9437C30.3874 36.5219 30.0645 37.0027 29.6442 37.4226C29.2299 37.8364 28.7304 38.1712 28.1577 38.4146C27.5973 38.658 26.982 38.7858 26.3362 38.7858C25.6905 38.7858 25.0874 38.6641 24.5147 38.4146C23.9482 38.1712 23.4486 37.8364 23.0344 37.4226C22.614 37.0027 22.2911 36.5219 22.0414 35.9376C21.7977 35.3777 21.6758 34.763 21.6758 34.1179V21.8669C21.6758 21.2217 21.7977 20.6131 22.0414 20.0472C22.2911 19.4751 22.6262 18.976 23.0344 18.5683C23.4486 18.1544 23.9482 17.8197 24.5147 17.5763C25.0874 17.3267 25.6844 17.2111 26.3362 17.2111C26.9881 17.2111 27.5912 17.3328 28.1577 17.5763C28.7243 17.8197 29.2238 18.1544 29.6381 18.5683C30.0523 18.976 30.3813 19.4751 30.6311 20.0472C30.8748 20.6131 30.9966 21.2217 30.9966 21.8669M31.7276 16.493C31.0514 15.8174 30.2412 15.2758 29.3213 14.8802C27.4632 14.0829 25.2214 14.0829 23.3572 14.8802C22.4373 15.2758 21.6271 15.8174 20.9509 16.493C20.2747 17.1685 19.7264 17.9779 19.3304 18.903C18.9344 19.8281 18.7334 20.8322 18.7334 21.879V34.1301C18.7334 35.1769 18.9344 36.181 19.3304 37.1122C19.7203 38.0251 20.2686 38.8345 20.9509 39.5222C21.6332 40.2039 22.4434 40.7455 23.3572 41.135C24.2832 41.5306 25.2823 41.7314 26.3362 41.7314C27.3901 41.7314 28.3953 41.5306 29.3152 41.135C30.229 40.7455 31.0392 40.2039 31.7276 39.5222C32.4099 38.8406 32.9521 38.0312 33.342 37.1122C33.738 36.1871 33.939 35.189 33.939 34.1301V21.879C33.939 20.8262 33.738 19.8281 33.342 18.903C32.946 17.9779 32.4039 17.1685 31.7215 16.493" fill="#0D0802"/>
<path d="M49.236 21.873V34.124C49.236 34.7691 49.1142 35.3777 48.8705 35.9437C48.6207 36.5219 48.2918 37.0027 47.8775 37.4226C47.4633 37.8364 46.9637 38.1712 46.3911 38.4146C45.264 38.9015 43.8751 38.9015 42.7541 38.4146C42.1815 38.1651 41.688 37.8364 41.2738 37.4226C40.8534 37.0027 40.5306 36.5158 40.2808 35.9376C40.0371 35.3716 39.9153 34.763 39.9153 34.1179V21.8669C39.9153 21.2278 40.0371 20.6132 40.2808 20.0472C40.5306 19.4751 40.8656 18.976 41.2738 18.5683C41.688 18.1544 42.1876 17.8197 42.7541 17.5763C43.3146 17.3328 43.9299 17.2111 44.5756 17.2111C45.2214 17.2111 45.8306 17.3328 46.3972 17.5763C46.9698 17.8258 47.4633 18.1544 47.8775 18.5683C48.2857 18.976 48.6207 19.4751 48.8705 20.0472C49.1142 20.6132 49.236 21.2218 49.236 21.8669M49.9671 16.493C49.2909 15.8174 48.4806 15.2697 47.5546 14.8741C46.6287 14.4785 45.6235 14.2777 44.5756 14.2777C43.4486 14.2777 42.3764 14.5089 41.3956 14.9654C40.8656 15.2088 40.3661 15.5131 39.9092 15.8722V0H36.9667V41.4637H39.9092V40.1065C40.3661 40.4595 40.8595 40.7638 41.3834 41.0133C42.3643 41.488 43.4364 41.7254 44.5696 41.7254C45.6235 41.7254 46.6287 41.5245 47.5485 41.1289C48.4623 40.7394 49.2726 40.1978 49.961 39.5162C50.6372 38.8345 51.1794 38.0251 51.5754 37.1061C51.9713 36.1811 52.1724 35.1769 52.1724 34.124V21.873C52.1724 20.8262 51.9713 19.822 51.5754 18.8969C51.1794 17.9719 50.6311 17.1624 49.961 16.493" fill="#0D0802"/>
<path d="M54.8407 49.4302C54.4569 49.0468 54 48.7425 53.4761 48.5173C52.4343 48.073 51.1489 48.073 50.1133 48.5173C49.5894 48.7425 49.1325 49.0468 48.7487 49.4302C48.3649 49.8136 48.0603 50.27 47.8349 50.7874C47.6095 51.3047 47.4937 51.8707 47.4937 52.4671V59.6546C47.4937 60.2449 47.6095 60.8109 47.8288 61.3343C48.0542 61.8516 48.3588 62.3142 48.7426 62.6976C49.1264 63.081 49.5833 63.3853 50.1072 63.6105C50.625 63.8357 51.1916 63.9452 51.7886 63.9452C52.3856 63.9452 52.9461 63.8296 53.47 63.6105C53.9878 63.3853 54.4508 63.081 54.8346 62.6976C55.2245 62.3142 55.523 61.8577 55.7484 61.3343C55.9738 60.8109 56.0834 60.251 56.0834 59.6546V59.4538H54.6823V59.6546C54.6823 60.0502 54.6031 60.4336 54.4508 60.7805C54.2985 61.1335 54.0914 61.4439 53.8355 61.6995C53.5796 61.9551 53.2689 62.162 52.9156 62.3142C52.2089 62.6124 51.356 62.6124 50.6555 62.3142C50.3021 62.1559 49.9914 61.9551 49.7356 61.6995C49.4797 61.4439 49.2726 61.1335 49.1203 60.7805C48.968 60.4336 48.8949 60.0502 48.8949 59.6546V52.4671C48.8949 52.0715 48.9741 51.6881 49.1203 51.3351C49.2726 50.9882 49.4858 50.6717 49.7356 50.4161C49.9914 50.1666 50.3021 49.9536 50.6555 49.8014C51.356 49.5032 52.2089 49.5032 52.9156 49.8014C53.2689 49.9536 53.5796 50.1666 53.8355 50.4161C54.0914 50.6717 54.2985 50.9821 54.4508 51.3351C54.6031 51.6881 54.6823 52.0654 54.6823 52.4671V52.6618H56.0834V52.4671C56.0834 51.8707 55.9738 51.3047 55.7484 50.7874C55.5291 50.27 55.2245 49.8136 54.8346 49.4302" fill="#0D0802"/>
<path d="M60.7804 62.5452C61.1642 62.9286 61.6211 63.2329 62.1389 63.4581C63.2233 63.9207 64.5514 63.9024 65.6175 63.4094C66.0256 63.2208 66.3911 62.9773 66.714 62.6791V63.6407H68.1152V48.1763H66.714V59.5022C66.714 59.8978 66.6348 60.2813 66.4825 60.6282C66.3302 60.9811 66.1231 61.2915 65.8672 61.5471C65.6114 61.8027 65.3007 62.0097 64.9473 62.1618C64.2468 62.4661 63.3939 62.4661 62.6872 62.1618C62.3339 62.0097 62.0293 61.8027 61.7734 61.5471C61.5175 61.2915 61.3104 60.9811 61.1581 60.6282C61.0058 60.2813 60.9266 59.8978 60.9266 59.5022V48.1763H59.5255V59.5022C59.5255 60.0987 59.6351 60.6647 59.8605 61.182C60.0859 61.6993 60.3905 62.1557 60.7743 62.5391" fill="#0D0802"/>
<path d="M85.9221 52.6681V52.4733C85.9221 51.8769 85.8063 51.317 85.5809 50.7936C85.3555 50.2702 85.0509 49.8199 84.6671 49.4304C84.2833 49.0469 83.8264 48.7426 83.3025 48.5175C82.2608 48.0671 80.9815 48.0671 79.9336 48.5175C79.4158 48.7426 78.9589 49.0469 78.569 49.4304C78.1852 49.8138 77.8806 50.2702 77.6552 50.7936C77.4298 51.317 77.3141 51.8769 77.3141 52.4733C77.3141 53.0332 77.442 53.5323 77.6979 53.9644C77.9416 54.3782 78.2583 54.7556 78.6421 55.0842C79.0198 55.4068 79.4463 55.705 79.9154 55.9606C80.3784 56.2223 80.8535 56.4657 81.3104 56.6848C81.7369 56.9039 82.1511 57.123 82.5471 57.336C82.937 57.549 83.2781 57.7681 83.5706 58.0055C83.8569 58.2367 84.0884 58.4924 84.259 58.7662C84.4234 59.034 84.5026 59.32 84.5026 59.6548C84.5026 60.0504 84.4234 60.4338 84.2772 60.7807C84.1188 61.1337 83.9117 61.444 83.6558 61.6997C83.4 61.9553 83.0893 62.1622 82.736 62.3143C82.0354 62.6186 81.1764 62.6186 80.4758 62.3143C80.1286 62.1622 79.8118 61.9553 79.5559 61.6997C79.3001 61.444 79.0929 61.1337 78.9406 60.7807C78.7883 60.4277 78.7152 60.0504 78.7152 59.6548V59.4539H77.308V59.6548C77.308 60.2451 77.4237 60.8111 77.6491 61.3345C77.8684 61.8579 78.1791 62.3143 78.5629 62.6978C78.9467 63.0812 79.4036 63.3916 79.9275 63.6167C80.4515 63.8358 81.018 63.9515 81.615 63.9515C82.212 63.9515 82.7786 63.8358 83.2964 63.6167C83.8142 63.3916 84.2711 63.0812 84.661 62.6978C85.0448 62.3143 85.3494 61.8579 85.5748 61.3345C85.8002 60.8172 85.916 60.2512 85.916 59.6548C85.916 59.0583 85.788 58.5897 85.5383 58.1637C85.2946 57.756 84.9778 57.3725 84.6001 57.0317C84.2224 56.697 83.796 56.3988 83.3269 56.1371C82.8639 55.8815 82.407 55.638 81.9501 55.4129C81.5297 55.212 81.1155 55.0051 80.7195 54.7921C80.3357 54.5791 79.9824 54.3539 79.6778 54.1226C79.3854 53.8914 79.1478 53.6358 78.9711 53.3619C78.8127 53.0941 78.7274 52.802 78.7274 52.4733C78.7274 52.0717 78.8005 51.7004 78.9528 51.3474C79.1051 50.9944 79.3122 50.6841 79.5681 50.4285C79.824 50.1728 80.1347 49.9659 80.488 49.8138C81.1886 49.5156 82.0415 49.5095 82.7481 49.8138C83.1015 49.9659 83.4122 50.1728 83.668 50.4285C83.9239 50.6901 84.131 50.9884 84.2894 51.3474C84.4356 51.7004 84.5148 52.0777 84.5148 52.4733V52.6681H85.916H85.9221Z" fill="#0D0802"/>
<path d="M127.5 52.6681V52.4733C127.5 51.8769 127.384 51.317 127.159 50.7936C126.933 50.2702 126.629 49.8199 126.245 49.4304C125.861 49.0469 125.404 48.7426 124.887 48.5175C123.845 48.0671 122.565 48.0671 121.518 48.5175C121 48.7426 120.543 49.0469 120.159 49.4304C119.775 49.8138 119.471 50.2702 119.245 50.7936C119.02 51.317 118.904 51.8769 118.904 52.4733C118.904 53.0332 119.032 53.5323 119.282 53.9644C119.526 54.3782 119.848 54.7556 120.226 55.0842C120.604 55.4068 121.03 55.705 121.499 55.9606C121.968 56.2223 122.438 56.4657 122.901 56.6848C123.327 56.9039 123.741 57.123 124.137 57.336C124.527 57.549 124.868 57.7681 125.167 58.0055C125.453 58.2367 125.685 58.4924 125.855 58.7662C126.02 59.034 126.099 59.32 126.099 59.6548C126.099 60.0504 126.02 60.4338 125.873 60.7807C125.715 61.1337 125.514 61.444 125.258 61.6997C125.002 61.9553 124.692 62.1622 124.338 62.3143C123.632 62.6186 122.779 62.6186 122.078 62.3143C121.725 62.1622 121.414 61.9553 121.158 61.6997C120.902 61.444 120.695 61.1337 120.543 60.7807C120.391 60.4277 120.318 60.0504 120.318 59.6548V59.4539H118.91V59.6548C118.91 60.2451 119.026 60.8111 119.251 61.3345C119.471 61.8579 119.781 62.3143 120.165 62.6978C120.549 63.0812 121.012 63.3916 121.524 63.6167C122.048 63.8358 122.614 63.9515 123.211 63.9515C123.808 63.9515 124.375 63.8358 124.893 63.6167C125.417 63.3916 125.873 63.0812 126.257 62.6978C126.635 62.3143 126.946 61.8579 127.165 61.3345C127.39 60.8172 127.506 60.2512 127.506 59.6548C127.506 59.0583 127.378 58.5897 127.128 58.1637C126.885 57.756 126.568 57.3725 126.184 57.0317C125.806 56.697 125.374 56.3988 124.911 56.1371C124.448 55.8815 123.991 55.638 123.54 55.4129C123.12 55.212 122.706 55.0051 122.31 54.7921C121.92 54.5791 121.572 54.3539 121.268 54.1226C120.969 53.8914 120.732 53.6358 120.567 53.3619C120.403 53.0941 120.324 52.802 120.324 52.4733C120.324 52.0717 120.403 51.7004 120.549 51.3474C120.701 50.9944 120.908 50.6841 121.164 50.4285C121.42 50.1728 121.731 49.9659 122.084 49.8138C122.785 49.5156 123.638 49.5095 124.344 49.8138C124.698 49.9659 125.008 50.1728 125.264 50.4285C125.52 50.6901 125.721 50.9884 125.88 51.3474C126.032 51.7004 126.105 52.0777 126.105 52.4733V52.6681H127.512H127.5Z" fill="#0D0802"/>
<path d="M102.346 49.4304C101.962 49.047 101.499 48.7427 100.982 48.5175C99.8971 48.055 98.5691 48.0732 97.503 48.5662C97.1009 48.7488 96.7354 48.9922 96.4064 49.2965V48.3349H95.0052V63.7933H96.4064V52.4673C96.4064 52.0656 96.4795 51.6883 96.6318 51.3353C96.7841 50.9823 96.9912 50.6719 97.2471 50.4163C97.503 50.1607 97.8137 49.9538 98.1609 49.8017C98.8615 49.5034 99.7205 49.5034 100.421 49.8017C100.774 49.9599 101.079 50.1668 101.341 50.4163C101.597 50.6719 101.804 50.9823 101.962 51.3353C102.109 51.6883 102.188 52.0656 102.188 52.4673V63.7933H103.589V52.4673C103.589 51.8709 103.479 51.3049 103.254 50.7876C103.028 50.2703 102.724 49.8077 102.34 49.4304" fill="#0D0802"/>
<path d="M114.244 59.6913C114.244 60.093 114.165 60.4703 114.012 60.8233C113.86 61.1763 113.647 61.4866 113.391 61.7423C113.135 61.9979 112.824 62.2048 112.471 62.3569C111.764 62.6612 110.905 62.6612 110.205 62.3569C109.851 62.2048 109.541 61.9979 109.285 61.7423C109.029 61.4866 108.822 61.1763 108.67 60.8233C108.578 60.6103 108.511 60.3851 108.475 60.1477C109.894 59.3748 115.462 56.1249 115.645 52.449V52.2664C115.621 51.7491 115.511 51.2501 115.316 50.7997C115.091 50.2763 114.786 49.8138 114.402 49.4364C114.018 49.053 113.555 48.7426 113.032 48.5175C111.984 48.0671 110.704 48.0671 109.657 48.5175C109.133 48.7426 108.67 49.0469 108.286 49.4364C107.902 49.8199 107.591 50.2763 107.372 50.7997C107.147 51.3231 107.037 51.8891 107.037 52.4855V59.6913C107.037 60.2877 107.153 60.8537 107.372 61.3771C107.591 61.9005 107.902 62.3569 108.286 62.7464C108.67 63.1299 109.133 63.4402 109.657 63.6593C110.18 63.8845 110.747 64.0002 111.344 64.0002C111.941 64.0002 112.508 63.8845 113.032 63.6593C113.555 63.4402 114.018 63.1299 114.402 62.7464C114.786 62.3569 115.097 61.9005 115.316 61.3771C115.541 60.8537 115.657 60.2877 115.657 59.6913V59.4905H114.25V59.6913H114.244ZM108.438 52.4855C108.438 52.0838 108.517 51.7004 108.67 51.3535C108.822 51.0005 109.029 50.6901 109.285 50.4345C109.541 50.1789 109.851 49.972 110.205 49.8138C110.558 49.6616 110.936 49.5825 111.338 49.5825C111.74 49.5825 112.118 49.6616 112.471 49.8138C112.824 49.9659 113.135 50.1789 113.391 50.4345C113.653 50.6901 113.86 50.9944 114.012 51.3413C114.152 51.6578 114.238 52.0291 114.238 52.3638C114.159 54.4756 111.125 56.9648 108.438 58.535V52.4855Z" fill="#0D0802"/>
<path d="M89.8149 44.543C89.6321 44.7195 89.5468 44.9508 89.5468 45.2307C89.5468 45.5107 89.6382 45.742 89.8149 45.9245C89.9915 46.101 90.2291 46.1923 90.5033 46.1923C90.7591 46.1923 90.9845 46.101 91.1734 45.9245C91.3683 45.742 91.4658 45.5107 91.4658 45.2307C91.4658 44.9508 91.3622 44.7195 91.1734 44.5369C90.7713 44.1657 90.156 44.1961 89.8149 44.543Z" fill="#0D0802"/>
<path d="M71.88 44.543C71.6972 44.7195 71.6119 44.9508 71.6119 45.2307C71.6119 45.5107 71.7033 45.742 71.88 45.9245C72.0567 46.101 72.2942 46.1923 72.5745 46.1923C72.8242 46.1923 73.0497 46.101 73.2385 45.9245C73.4334 45.742 73.5309 45.5107 73.5309 45.2307C73.5309 44.9508 73.4334 44.7195 73.2385 44.5369C72.8425 44.1657 72.2272 44.1961 71.88 44.543Z" fill="#0D0802"/>
</g>
<defs>
<clipPath id="clip0_207_2231">
<rect width="127" height="64" fill="white" transform="translate(0.5)"/>
</clipPath>
</defs>
</svg>
